<svg version="1.0" xmlns="http://www.w3.org/2000/svg" width="565" height="400" fill="none" stroke="#fff" viewBox="0 0 565 400"><path d="M296.847 30.557c-.524.055-2.152.248-3.587.414-3.724.414-8.524 1.52-11.587 2.652-4.11 1.547-11.173 4.668-14.345 6.353-4.442 2.348-12.222 7.293-11.918 7.597.138.138 1.103-.331 2.317-1.133 3.531-2.348 8.47-5.248 11.284-6.657 3.31-1.685 11.2-5.055 14.235-6.105 5.738-1.989 13.684-2.928 22.705-2.624 16.608.525 22.125.94 27.726 2.1 3.035.635 3.172.635 3.172.33 0-.496-7.917-1.795-13.794-2.237-6.262-.47-24.029-.939-26.208-.69zm-.276 3.176c-12.69 3.702-17.767 5.498-22.07 7.79-4.58 2.431-13.38 8.564-13.05 9.116.083.138.028.194-.11.11-.165-.11-.828.222-1.49.719-.662.525-1.6 1.16-2.096 1.436-.497.277-.8.636-.718.774.083.166.028.193-.138.083-.413-.249-4.22 2.32-4 2.68.083.137.028.193-.11.11-.359-.221-2.455 1.409-2.345 1.795.027.138-.028.194-.138.138-.138-.082-.662.221-1.186.663-.525.47-1.96 1.575-3.173 2.514-12.497 9.586-23.974 22.265-31.588 34.89-1.987 3.314-6.4 12.099-7.311 14.557-.276.746-.607 1.326-.717 1.326-.331 0-.387.249.993-4.005 1.931-5.912 4.91-11.713 12.249-23.73 4.8-7.872 6.207-9.75 12.139-16.16 1.462-1.602 2.593-3.038 2.565-3.176-.055-.166 0-.221.11-.11.111.137 1.821-1.382 3.808-3.316 3.669-3.563 10.07-8.867 14.704-12.154 1.518-1.105 2.456-1.934 2.318-2.072-.47-.47-11.063 7.79-16.47 12.845-5.49 5.11-12.029 12.265-15.036 16.52-1.959 2.734-9.545 15.358-11.725 19.447-.827 1.574-1.407 2.928-1.296 3.01.082.111.055.194-.11.194-.773 0-3.394 6.713-4.884 12.624-.69 2.707-1.683 6.105-2.207 7.542-.552 1.436-1.02 2.928-1.048 3.315-.055.386-.166.745-.276.828-.11.083-1.242 3.812-2.538 8.287-1.27 4.476-2.787 9.448-3.366 11.05-.58 1.602-2.952 6.63-5.242 11.188-2.29 4.558-4.772 9.723-5.49 11.464-.717 1.74-2.786 6.602-4.58 10.8a930.978 930.978 0 0 0-4.358 10.36c-.58 1.519-1.959 4.723-3.062 7.154a954.678 954.678 0 0 0-4 8.978c-3.67 8.287-4.498 10.028-9.712 20.11-2.538 4.89-2.841 5.663-2.51 6.078.303.414.303.442-.083.138-.359-.304-.497-.249-.772.359-.166.387-.221.829-.138.994.11.166.055.221-.11.11-.166-.11-.718.636-1.353 1.824a453.967 453.967 0 0 1-3.393 6.022c-1.269 2.21-2.29 4.171-2.29 4.337 0 .193-.11.36-.22.36s-.497.524-.856 1.16c-2.703 4.806-3.972 6.822-4.69 7.568-.524.58-.717.94-.524 1.078.221.11.138.414-.22.939-.994 1.381-2.76 5.276-3.09 6.823-.387 1.768-.138 2.293.827 1.768.745-.387 3.338-3.646 4.966-6.215.69-1.078 2.124-3.315 3.228-5.028 1.103-1.713 2.538-4.06 3.173-5.249.965-1.768 1.958-2.955 5.462-6.436 2.373-2.376 5.407-5.718 6.731-7.458 3.063-3.978 6.87-9.917 6.677-10.415-.055-.22-.028-.304.11-.22.359.193 2.704-4.117 6.787-12.431 5.793-11.824 8.718-18.868 10.207-24.613.414-1.547 1.352-3.95 2.428-6.105.966-1.934 3.2-6.658 4.966-10.442a684.472 684.472 0 0 1 7.2-14.945c4.414-8.95 5.904-12.21 8.856-19.723 1.104-2.818 3.587-8.785 5.518-13.26 5.904-13.701 7.228-16.906 10.952-26.795 1.987-5.249 4.138-10.746 4.8-12.238 2.29-5.22 5.628-9.972 10.898-15.69 1.49-1.63 2.62-3.039 2.51-3.15-.11-.137-.055-.137.11-.054.166.082.663-.194 1.077-.636.44-.442 1.269-1.16 1.848-1.547.552-.414.966-.856.855-1.022-.083-.166-.027-.193.166-.083.165.11.993-.304 1.903-.994 2.07-1.602 2.207-1.658 2.4-1.326.11.166.083.249-.055.22-.745-.248-5.49 6.078-12.138 16.078-5.656 8.536-8.001 12.79-11.422 20.773-4.442 10.36-6.897 17.707-10.897 32.68-1.6 6.077-3.173 11.905-3.476 12.983-.276 1.05-1.214 4.53-2.042 7.735-2.676 10.22-3.78 12.983-10.318 26.077-2.4 4.834-5.628 11.574-7.2 14.972-4.663 10.276-8.939 18.59-12.58 24.475-.718 1.132-1.131 2.127-1.021 2.32.11.193.083.249-.11.138-.47-.276-.69.36-.276.884.33.415.303.442-.11.11-.387-.303-.497-.276-.8.277-.194.359-2.29 3.591-4.718 7.21-2.4 3.618-4.276 6.712-4.194 6.878.11.166.083.221-.082.138-.166-.11-1.242 1.188-2.4 2.846a200.453 200.453 0 0 1-3.09 4.281c-.525.69-.883 1.381-.8 1.547.11.138.055.221-.083.194-.138-.056-1.104 1.022-2.152 2.403-7.118 9.475-9.739 12.735-12.69 15.911-2.787 2.956-2.76 3.674.137 2.763 2.097-.663 5.628-2.707 5.38-3.122-.11-.193-.055-.22.138-.11.635.414 4.607-3.674 7.31-7.57 2.208-3.148 5.022-7.845 8.526-14.253 6.593-12.044 9.876-18.37 9.683-18.702-.11-.193-.083-.248.028-.11.303.248 2.372-3.426 2.207-3.895-.083-.194-.028-.304.082-.221.11.055.91-1.133 1.766-2.68 3.366-6.16 10.704-19.806 11.808-22.016 1.351-2.652 1.324-2.624 1.517-2.459.22.221-3.118 8.039-10.015 23.591-7.697 17.293-9.628 21.409-12.718 27.017-1.213 2.265-2.151 4.226-2.069 4.392.11.166.056.22-.11.138-.138-.11-.607.387-1.048 1.105-3.394 5.884-9.215 13.204-12.994 16.409-.966.773-1.738 1.546-1.738 1.685 0 .359 1.241.248 2.676-.221.717-.249 2.814-1.299 4.634-2.348 1.821-1.023 4.8-2.459 6.622-3.15 1.82-.718 3.614-1.464 3.972-1.712.607-.387.662-.387.497.027-.331.857-4.276 5.801-6.51 8.232-1.215 1.299-2.125 2.459-2.015 2.57.11.137.055.137-.138.027-.386-.193-3.034 1.713-2.897 2.1.028.137-.055.193-.193.11s-.772.138-1.434.497c-2.456 1.381-12.608 5.497-14.622 5.94-1.517.33-9.049.883-11.918.883-1.848 0-2.428-.138-4.414-1.022-2.786-1.215-5.766-3.177-5.573-3.619.083-.22-.138-.359-.551-.359-.387 0-.69.083-.69.221 0 .332 2.759 2.404 4.138 3.094 1.462.746 1.076 1.077-.469.387-1.71-.746-3.366-1.188-3.504-.967-.22.332.993 1.326 4.525 3.84 1.738 1.243 3.89 2.956 4.8 3.784.883.829 1.738 1.437 1.904 1.326.165-.11.193-.027.055.166-.11.221.083.635.469 1.077 1.352 1.464 4.359 6.63 4.359 7.486 0 .387-2.428.802-5.794.995-3.78.22-6.4.635-6.842 1.077-.579.58.056 1.492 1.407 2.127 1.407.636 3.918.663 9.298.11 3.393-.33 3.752-.33 4.083.111.993 1.188 4.33 8.426 5.71 12.348 1.766 5 3.2 8.453 4.304 10.47.469.856 1.241 3.342 2.042 6.574.717 2.873 2.151 8.039 3.227 11.464 4.194 13.37 4.8 16.022 4.58 19.724-.138 2.237.165 2.9.497 1.132.303-1.63-.11-5.828-.856-8.701-.386-1.464-1.765-6.05-3.062-10.221-1.297-4.144-2.731-8.978-3.173-10.718-.441-1.74-.882-3.398-.965-3.674-.083-.249-.028-.47.11-.47.11 0 .828 1.575 1.545 3.508.745 1.962 1.793 4.475 2.373 5.608.551 1.133 1.49 3.508 2.069 5.249 1.49 4.558 2.869 7.9 5.02 12.292 1.05 2.127 2.208 4.586 2.566 5.442.36.857.745 1.52.856 1.437.358-.194-.497-2.293-2.842-7.072-2.455-5.028-3.78-8.232-5.324-12.928-.58-1.74-1.407-3.923-1.876-4.834-.442-.912-1.407-3.15-2.152-5-.717-1.823-1.821-4.42-2.428-5.774-.634-1.326-1.517-3.757-1.986-5.359-.497-1.602-1.6-4.723-2.456-6.933-.882-2.21-2.124-5.69-2.758-7.735-.635-2.044-1.463-4.337-1.821-5.083-.8-1.685-.8-1.685-.055-1.74.358-.028 1.986-.387 3.669-.746 3.586-.829 8.69-1.492 14.07-1.823 4.303-.249 9.987-1.326 12.138-2.32.773-.36 2.676-1.63 4.277-2.846 1.6-1.188 3.696-2.735 4.69-3.398 3.282-2.21 9.435-7.43 9.186-7.817-.11-.166-.027-.194.193-.056.442.277 3.311-2.707 4.828-5 .607-.911 1.904-3.425 2.925-5.635.993-2.21 2.345-5.055 3.007-6.353 2.096-4.144 2.676-6.299 3.559-12.984.303-2.21 1.048-6.132 1.655-8.701 1.462-6.326 1.793-8.785 1.6-12.127-.193-2.873-1.104-8.757-1.573-10-.606-1.547-.275-4.696 1.435-13.701l.883-4.614-.635-4.585c-.607-4.392-.634-4.641-.165-5.801.248-.69.358-1.381.248-1.547-.11-.194-.083-.249.083-.166.359.221.634-.69.634-2.238 0-1.657-.441-1.436-.855.415-.58 2.79-.883 2.376-.634-.884.248-3.674.248-4.31-.11-4.53-.139-.083.11-1.686.634-3.895.496-2.045 1.545-6.354 2.29-9.53 2.841-11.713 4.193-15.25 13.297-34.53 5.794-12.238 8-17.017 9.021-19.338 7.366-16.823 12.415-25.745 24.636-43.507 4.194-6.05 8.056-11.962 8.746-13.26.496-.94.634-1.574.524-2.1-.166-.662-.276-.717-1.517-.607-.745.028-1.297 0-1.242-.083.166-.276 9.766-4.972 15.284-7.486 6.124-2.818 11.421-5.083 15.394-6.574 1.683-.663 3.09-1.299 3.09-1.437 0-.331-.248-.276-7.173 1.74zm-1.49 1.299c-.083.138-.496.359-.91.47-.883.22-8.856 3.729-14.07 6.215-2.097.994-3.586 1.85-3.476 2.016.083.166.027.194-.138.083-.193-.11-2.649.995-5.49 2.431-2.87 1.437-5.683 2.845-6.29 3.094-.607.276-1.324.608-1.628.718-1.352.608.497-.8 5.076-3.895 2.704-1.795 4.856-3.342 4.8-3.425-.082-.083.028-.11.221-.11.193.027 1.656-.58 3.256-1.382 1.6-.773 4.331-1.906 6.07-2.514 4-1.436 12.524-4.143 12.662-4.033.028.028 0 .194-.083.332zM272.294 48.65c0 .774-3.78 6.63-11.229 17.32-.993 1.437-1.683 2.68-1.572 2.873.11.166.082.221-.083.139-.359-.221-2.924 3.59-2.676 4.005.11.166.083.221-.11.11-.166-.082-1.297 1.437-2.76 3.757-5.406 8.702-9.076 15.58-13.931 26.326-3.035 6.713-6.98 15.22-10.87 23.48-9.987 21.105-10.07 21.299-15.394 43.757-.717 3.066-1.214 4.586-1.766 5.387-.441.635-1.103 1.74-1.462 2.513-1.627 3.288-4.524 11.99-4.248 12.735.082.221.055.36-.083.276-.11-.083-.552 1.078-.938 2.597-.69 2.486-5.49 14.447-11.394 28.26-4.773 11.104-8.221 18.204-12 24.447-1.27 2.154-1.821 3.287-1.628 3.48.193.194.276.166.276-.055v-.47c0-.083.22-.359.496-.635.745-.746 4.745-7.762 6.594-11.547 1.6-3.26 2.18-4.53 4.828-10.47 1.986-4.447 10.152-24.06 10.152-24.391 0-.138.22-.442.469-.636.414-.331.441-.331.248.166-.11.304-.58 1.989-1.02 3.73-2.594 9.916-4.58 16.408-6.732 21.822-2.51 6.354-7.283 14.586-10.621 18.287-.828.94-1.325 1.74-1.214 1.906.11.194.082.249-.083.166-.166-.11-.966.414-1.766 1.16-.993.912-1.6 1.271-1.793 1.105-.22-.165-.469-.027-.772.442-.552.829-1.821 1.492-5.187 2.735-3.724 1.354-4.47 1.713-7.559 3.508-1.545.884-3.531 1.934-4.414 2.32l-1.6.719 2.565-2.486c1.407-1.381 2.483-2.624 2.373-2.79-.11-.166-.028-.249.193-.221.193.055.331-.083.276-.276-.028-.166.055-.304.166-.277.413.138 3.145-3.342 2.924-3.674-.11-.193-.083-.248.11-.138.607.36 8.304-11.63 7.89-12.293-.11-.193-.082-.248.11-.138.553.332 11.34-22.044 11.45-23.784.027-.304.138-.525.22-.47.11.056.36-.303.552-.8.193-.47 1.324-3.04 2.51-5.664 1.187-2.651 2.07-4.944 1.96-5.11-.083-.193-.056-.249.055-.138.276.249 2.538-4.807 5.766-12.818 2.4-5.994 2.73-6.988 2.234-6.988-.138 0-.248.165-.248.331.028.193-.055.304-.166.221-.193-.11-1.793 2.735-4.717 8.342-1.435 2.818-2.014 3.592-1.214 1.63 1.186-2.817 4.47-9.723 8.525-17.817 6.814-13.591 8.138-16.961 10.787-27.265.717-2.707 1.765-6.685 2.345-8.812.579-2.127 2.069-7.652 3.31-12.293 1.214-4.64 2.787-10.304 3.476-12.569 1.518-4.944 4.966-14.254 7.256-19.585.938-2.1 1.6-3.978 1.49-4.144-.083-.166-.056-.22.055-.083.138.11.91-1.132 1.738-2.762 1.959-3.895 3.972-7.32 7.283-12.348 1.462-2.265 2.62-4.226 2.51-4.392-.082-.138-.055-.221.083-.11.276.165 6.097-8.04 5.987-8.426-.055-.11.028-.193.165-.138.332.083 2.787-3.011 2.566-3.26-.11-.083-.055-.138.083-.11.331.083 4.138-3.647 4.055-3.978-.055-.138.056-.166.221-.055.386.22 2.262-.94 2.042-1.271-.083-.138-.276-.166-.442-.083-.193.11-.22.055-.11-.138.165-.249.303-.249.607-.028.276.249.827.056 2.427-.856 1.132-.635 1.987-1.298 1.904-1.436-.083-.166-.028-.194.138-.083.441.276 1.49-.332 1.269-.719-.11-.193-.083-.22.11-.11.166.11.828-.083 1.463-.414 2.317-1.16 5.49-1.464 5.49-.498zM243.38 64.728c-.193.22-.22.497-.11.607.11.138.055.138-.11.055-.414-.248-4.332 4.42-4.083 4.835.11.193.082.22-.11.11-.194-.11-.911.608-1.794 1.823-2.07 2.873-2.455 3.509-2.235 3.868.11.193.083.22-.11.11-.497-.304-3.035 5.11-5.821 12.403-1.407 3.647-3.283 8.62-4.221 11.05-.91 2.43-4.193 10.331-7.256 17.541-3.09 7.21-6.62 15.663-7.862 18.785-1.27 3.121-2.952 7.071-3.752 8.812-.828 1.712-1.407 3.26-1.297 3.453.083.165.083.22-.027.11-.249-.22-6.622 12.43-10.236 20.359-1.324 2.873-3.338 7.1-4.469 9.337-1.103 2.237-1.959 4.226-1.848 4.392.11.193.083.221-.11.11-.414-.248-1.656 1.465-3.587 5-.883 1.548-1.683 2.846-1.82 2.846-.442 0 .054-4.503.8-7.017.385-1.353 1.903-5.58 3.365-9.392 4.11-10.773 8.58-24.447 8.194-25.11-.11-.166-.11-.249.027-.138.276.248 5.96-16.547 8.028-23.674 2.345-8.121 2.952-9.917 4.8-14.088 3.642-8.26 7.698-15.525 11.67-20.994.856-1.16 1.49-2.266 1.38-2.431-.083-.138-.028-.194.11-.11.386.248 1.82-1.658 1.573-2.073-.11-.165-.083-.22.11-.138.359.249 2.593-2.541 2.345-2.928-.083-.138-.028-.193.11-.11.166.11 1.27-.967 2.456-2.348 2.924-3.426 8.331-8.84 12.387-12.376 1.82-1.602 3.365-2.983 3.42-3.121.028-.139.166-.166.221-.083.083.083.028.331-.138.525zm-50.43 89.446c-2.235 7.017-3.725 11.298-5.987 17.237-1.186 3.177-2.731 7.376-3.393 9.282-1.407 4.088-2.042 7.956-1.545 9.53.276.94.22 1.271-.938 4.089-1.407 3.453-2.4 5.331-4.139 7.845-.69.967-1.158 1.878-1.048 2.016.083.139.028.221-.138.194-.276-.083-12.69 16.353-15.532 20.552-.883 1.354-1.683 2.431-1.766 2.431-.165 0-.055-.221 2.29-4.475.993-1.796 1.683-3.398 1.573-3.564-.11-.193-.083-.248.083-.165.33.193 4.276-7.818 7.752-15.829 1.38-3.121 2.952-6.657 3.503-7.873a291.419 291.419 0 0 0 3.09-7.182c1.104-2.735 2.4-5.829 2.87-6.85.44-1.05.717-2.045.634-2.21-.11-.194-.083-.25.028-.111.248.22 2.179-4.006 4.883-10.718 1.517-3.812 8.745-18.508 8.966-18.287.055.055-.497 1.906-1.187 4.088zm20.442 21.85c-.11.498-.248 2.68-.303 4.835-.055 2.458-.221 4.475-.497 5.386-2.676 9.227-2.703 9.503-2.593 15.138.11 4.393.193 5.028.855 6.934.47 1.298.745 2.707.773 3.73.027 2.375.33 4.392.662 4.309.165-.028.276-.304.276-.58 0-.636.386-1.105.44-.553.029.221.084.774.139 1.27.027.47.193 1.741.359 2.818.662 4.255.303 7.763-1.628 15.912-.442 1.823-1.049 5.248-1.38 7.596-.91 6.74-1.379 8.26-4.276 14.227-.8 1.657-2.152 4.503-3.007 6.298-.827 1.796-1.959 3.867-2.483 4.586-.551.746-.883 1.408-.772 1.519.11.11.055.166-.11.11-.166-.055-.58.25-.966.663-.359.387-1.462 1.437-2.455 2.293-.994.884-1.794 1.713-1.794 1.879 0 .138-.22.304-.496.359-.718.11-1.324.663-1.104 1.05.083.165.083.22-.055.11-.11-.11-.855.331-1.628.967-.772.663-3.007 2.348-4.993 3.73-1.959 1.38-4.331 3.093-5.214 3.811-.91.69-2.235 1.575-2.98 1.934-1.655.829-8.993 2.32-11.476 2.32-3.007 0-11.173 1.05-15.284 1.962-2.124.47-3.862.828-3.918.773a96.4 96.4 0 0 0-.91-1.52l-.855-1.408 2.262-.912c3.78-1.519 8.497-4.088 11.09-6.022 3.835-2.845 12.912-12.071 14.953-15.193 1.6-2.403 2.124-3.923 1.407-3.923-.193 0-1.876.802-3.807 1.768-4.304 2.183-16.111 7.404-20.912 9.227-3.228 1.243-5.186 1.795-10.207 2.9l-1.683.387.138-.884c.138-.801.027-.967-.91-1.547l-1.077-.663 1.518-.055c3.917-.166 10.262-.718 11.89-1.05 1.573-.331 7.477-2.596 12.746-4.944 2.29-1.023 5.186-2.929 4.966-3.26-.083-.166-.055-.221.11-.138.331.193 1.876-1.022 1.876-1.52.028-.193.166-.331.331-.303.331.055 1.131-.746 1.159-1.16a.328.328 0 0 1 .33-.277c.387 0 1.794-1.63 4.94-5.8 1.489-1.99 3.117-3.84 3.613-4.117 1.38-.801 4.718-4.254 4.497-4.64-.11-.166-.083-.222.11-.111.607.359 7.339-9.641 7.339-10.94 0-.248.082-.414.193-.358.083.082.69-.967 1.296-2.293 3.366-7.238 6.097-15.69 9.436-29.171 1.269-5.221 2.069-7.707 3.586-11.492 2.152-5.276 5.297-13.812 5.766-15.69.386-1.381 1.02-1.63.717-.276zm-1.959 2.625c-.248.58-.717 1.85-1.076 2.845-2.234 6.381-3.724 9.917-3.724 8.923 0-.442 2.373-7.32 3.228-9.282.386-.94.883-2.127 1.103-2.624.194-.47.497-.884.635-.884.165 0 .083.47-.166 1.022zm-25.463 10.22c-2.483 7.183-10.484 24.2-15.036 32.1-.993 1.713-1.738 3.26-1.627 3.453.082.166.082.22-.056.11-.11-.11-1.076 1.05-2.096 2.625-2.76 4.17-5.628 7.624-9.629 11.685-1.986 1.96-3.53 3.646-3.476 3.729.083.083-.082.138-.358.138-.442 0-.47-.083-.166-.58.22-.304.635-1.602.966-2.9 1.269-5.056 3.228-9.531 5.931-13.564.883-1.27 1.6-2.459 1.6-2.652 0-.193.083-.304.193-.276.11.027 2.235-2.68 4.746-6.022 11.67-15.608 11.973-16.077 14.014-20.773 1.987-4.53 2.428-5.415 3.449-6.685.552-.663.938-1.382.855-1.603-.083-.22-.055-.304.11-.22.138.082.47-.25.718-.747.469-.939.938-1.602 1.103-1.602.055 0-.496 1.713-1.241 3.785zm28.112 2.073c.33 3.01.303 3.26-.359 6.712a91.676 91.676 0 0 0-.91 5.055c-.359 2.9-.635 1.63-.497-2.348.138-4.613.91-12.513 1.214-12.513.11 0 .359 1.409.552 3.094zm-1.49-.857c-.359 1.851-.717 7.293-.8 12.486-.055 2.984-.165 5.442-.276 5.442-.11 0-.193-.055-.22-.138 0-.055-.194-.773-.414-1.574-.552-2.072-.525-9.807.027-11.824.249-.828.635-2.348.883-3.397.47-1.823 1.131-2.68.8-.995zm-31.616 29.779c-.772 1.409-1.324 2.652-1.214 2.818.11.193.083.248-.055.165-.303-.165-3.862 6.354-3.78 6.934 0 .193-.055.304-.137.193-.249-.22-3.09 5.166-2.897 5.525.11.138.055.193-.055.055-.304-.248-1.849 2.542-1.6 2.928.082.139.055.221-.083.111-.138-.083-.993 1.16-1.904 2.762-1.903 3.398-4.276 7.1-5.986 9.393-.662.883-1.186 1.795-1.186 2.016 0 .221-.083.36-.194.276-.11-.083-1.103.746-2.207 1.851-1.103 1.077-2.73 2.459-3.614 3.066-1.765 1.243-5.572 2.929-5.986 2.68-.138-.083.248-.608.883-1.188 1.958-1.768 4.938-5.304 4.745-5.635-.11-.166-.083-.221.082-.138.331.193 6.511-7.68 6.511-8.288 0-.165.11-.276.22-.193.304.166.829-.856.58-1.132-.11-.083-.055-.139.138-.083.69.193 14.374-19.116 13.987-19.724-.11-.166-.055-.22.083-.138.248.166 3.945-5.249 3.945-5.746 0-.083.22-.387.47-.69.937-1.105.661-.249-.746 2.182zm-24.47 11.961c-.745.967-3.532 9.668-3.78 11.823-.055.387-.22.663-.386.636-.304-.083-4.331 3.535-5.545 4.972-.359.414-.69.718-.773.635-.055-.055 1.794-3.453 4.138-7.514 2.345-4.088 4.553-7.983 4.884-8.673.606-1.188 1.324-2.21 1.6-2.21.055 0 0 .165-.138.331zm-5.214 14.365c-.249.497-.994 1.768-1.683 2.79-.662 1.05-1.104 2.016-1.021 2.182.11.166.083.22-.055.138-.166-.083-1.27 1.381-2.456 3.287-2.4 3.785-5.49 7.845-5.959 7.845-.606 0 .028-1.767 1.96-5.69l1.958-3.895 3.78-3.757c2.069-2.072 3.807-3.784 3.862-3.784.027 0-.138.414-.386.884zm23.201 18.37c-1.02 1.712-2.841 4.116-4.717 6.132-.8.884-1.38 1.713-1.27 1.85.11.139.083.167-.055.056-.138-.138-1.517.995-3.034 2.486-3.697 3.591-6.511 5.967-8.69 7.376-3.035 1.961-10.18 5.387-11.229 5.387-.165 0-.717-.58-1.214-1.326-1.683-2.376-3.09-3.923-3.365-3.73-.194.11-.221.028-.083-.165.248-.415-.91-1.74-1.324-1.492-.166.11-.194.028-.056-.166.249-.442-2.841-3.674-3.283-3.425-.165.083-.22.083-.138 0 .221-.249-2.207-2.818-2.648-2.818-.469 0-4.497-2.68-4.662-3.094-.083-.165.524-.027 1.296.332.8.359 2.125.718 2.952.828 1.683.194 5.518 2.183 5.518 2.818 0 .193-.442.58-.966.829-2.29 1.105-.414 1.105 4.828.055 3.504-.718 6.649-1.657 6.456-1.934-.083-.138.027-.165.22-.11.497.193 3.614-1.077 3.339-1.354-.11-.11-.028-.138.193-.027.524.193 6.152-2.183 5.876-2.486-.138-.11-.083-.139.083-.056.386.221 10.456-4.199 14.042-6.132 1.38-.746 2.538-1.299 2.593-1.243.055.055-.248.69-.662 1.409zm-30.236 25.91c.358.691.607 1.3.551 1.354-.193.166-7.531.719-9.407.719-2.042 0-3.945-.608-4.359-1.382-.331-.635-.028-.718 6.18-1.243 2.73-.22 5.02-.47 5.076-.552.083-.083.414-.138.717-.138.414 0 .773.386 1.242 1.243zm3.696 3.095c.387.884 1.242 3.204 1.876 5.193.635 1.961 1.27 3.646 1.38 3.674.138.055.193.193.11.332-.055.11.359 1.436.993 2.928 1.683 4.143 2.732 7.265 2.51 7.403-.192.11-1.323-2.763-4.358-11.022-1.242-3.398-3.31-7.597-3.752-7.597-.166 0-.248-.083-.138-.165.083-.11-.028-.553-.248-1.023-.359-.662-.386-.856-.055-1.05.69-.469.965-.248 1.682 1.327zm172.757-257.65c-8.139.387-17.022 1.934-21.823 3.868-7.42 2.956-16.166 8.84-22.318 15.027-6.4 6.437-15.367 17.376-14.87 18.177.11.166.083.221-.11.11-.47-.276-3.642 5.415-5.408 9.78-.386.939-1.214 2.43-1.848 3.26-.8 1.049-1.049 1.574-.8 1.712.22.138-.221 1.298-1.6 4.033-1.076 2.127-2.345 4.945-2.814 6.326-.47 1.353-1.463 3.48-2.207 4.696-1.242 2.072-4.47 8.757-6.208 12.845-.414.995-1.103 3.094-1.545 4.696-1.545 5.829-5.214 15.36-7.559 19.751-3.2 5.995-4 7.818-5.131 11.906-3.228 11.63-5.683 19.144-8.387 25.663-1.793 4.282-2.566 10.829-1.655 13.84.22.745.414 1.878.414 2.486 0 3.204 1.49 8.176 4.634 15.442 2.787 6.491 4.608 9.64 8.856 15.33 3.09 4.172 14.015 15.305 19.119 19.448 6.014 4.89 8.22 6.547 8.552 6.354.166-.11.22-.083.138.083-.47.745 5.573 3.563 9.104 4.254.883.165 2.62.359 3.89.442 1.241.055 2.262.22 2.262.303 0 .25-7.973 4.144-11.449 5.608-3.89 1.602-4.883 2.155-4.662 2.514.11.193.082.22-.138.11-.276-.165-2.373 1.244-3.063 2.045-.082.082-1.765 1.547-3.751 3.232-3.918 3.287-5.932 4.75-9.27 6.823-1.242.746-2.07 1.464-1.959 1.63.083.138.028.193-.138.082-.634-.386-13.573 8.067-15.339 10.028-.634.69-.082.801.773.166.745-.553 1.352-.525 2.207.165.827.663.938 1.768.303 2.984-.827 1.657-5.766 4.668-11.449 7.016-2.759 1.16-5.103 2.404-9.242 5.028-3.641 2.265-7.09 3.84-8 3.619-.745-.194-1.38-1.768-1.131-2.818.11-.36 1.02-1.547 2.041-2.624 2.014-2.155 5.904-4.862 11.09-7.707 6.263-3.481 8.69-4.945 8.608-5.249-.028-.166.055-.249.22-.138.166.083.608-.083.994-.387.414-.331.91-.58 1.103-.58.552 0 .745-.525.276-.718-.248-.11-.965.22-1.738.801-1.545 1.105-4.607 2.928-9.462 5.58-6.87 3.757-11.643 7.348-13.298 10.028-1.02 1.657-.055 4.475 1.517 4.475 1.242-.028 5.132-1.879 9.16-4.42 2.29-1.437 5.38-3.15 6.897-3.785 6.4-2.817 9.021-4.199 11.394-6.132 1.407-1.133 1.986-2.127 1.986-3.48 0-1.161-.993-2.349-1.959-2.349-.469 0-.524-.083-.276-.387.497-.58 7.228-5.11 10.787-7.237 4.69-2.79 7.311-4.558 7.228-4.862-.027-.138.055-.193.22-.083.387.249 3.174-1.878 8.415-6.353 2.29-1.934 4.58-3.812 5.16-4.2.551-.358 3.337-1.684 6.207-2.955 2.841-1.243 6.455-2.956 8-3.812 1.71-.94 3.31-1.602 4.138-1.74 1.545-.221 4.718-1.63 6.621-2.929 2.345-1.63 7.394-5.828 7.311-6.104-.027-.139.055-.194.193-.083.276.138 4.056-2.459 5.076-3.509.276-.276.552-.497.607-.497.194 0-2.565 5.746-3.752 7.79-1.103 1.906-2.069 3.343-7.697 11.409-1.269 1.823-3.752 5.027-5.49 7.127-4.248 5.166-6.924 8.812-6.786 9.254.083.193.027.276-.138.193-.524-.331-4.11 5.608-6.18 10.249-8.221 18.59-8.387 18.977-10.704 23.563-1.048 2.044-1.876 3.923-1.876 4.199 0 .304.414.718 1.076 1.05.58.303 1.131.745 1.241.994.331.912.166 5.083-.276 6.409-.551 1.657-3.034 6.16-4.883 8.922-1.655 2.459-3.117 4.254-6.207 7.514-1.269 1.326-2.235 2.542-2.124 2.707.11.166.055.249-.11.221-.166-.055-.994.801-1.877 1.906-5.048 6.271-7.034 8.15-7.835 7.348-.44-.442.773-3.536 2.787-7.1 1.02-1.85 2.428-4.75 3.117-6.408 3.945-9.447 4.194-9.972 6.76-13.618 2.896-4.172 4.138-5.663 5.517-6.658 1.71-1.243 1.517-1.713-.248-.58-1.352.856-2.235 1.878-5.132 5.994-2.593 3.674-3.503 5.249-4.69 8.094-2.786 6.768-4.331 10.138-5.986 13.15-1.021 1.823-2.097 4.17-2.428 5.22-.552 1.851-.552 1.934-.083 2.293.304.193.745.36 1.049.36.8 0 2.151-.912 1.986-1.327-.055-.193-.028-.304.11-.22.138.082.552-.25.938-.747a42.473 42.473 0 0 1 1.738-1.989c.552-.607 2.152-2.541 3.56-4.281 1.406-1.74 2.896-3.48 3.31-3.868 2.565-2.32 6.842-8.038 9.049-12.071 2.207-3.978 2.676-5.58 2.676-8.785 0-2.845-.083-3.01-1.96-4.31l-.634-.441.745-1.354c1.352-2.403 5.242-10.718 7.642-16.27 3.918-9.033 6.483-14.503 7.918-16.63 2.124-3.26 6.318-8.867 8.966-12.044 1.545-1.823 2.648-3.398 2.538-3.563-.11-.166-.083-.221.11-.11.36.22 1.821-1.63 1.573-2.045-.11-.166-.055-.249.083-.221.303.083 4.248-5.36 7.366-10.138 2.18-3.315 2.869-4.613 5.324-9.834.91-1.934 1.876-3.73 2.152-4.006.304-.304 1.104-1.27 1.793-2.182.718-.912 1.876-2.21 2.621-2.9 1.324-1.244 4.856-3.868 5.187-3.868.248 0 4-2.43 5.159-3.342.551-.415 1.958-1.299 3.172-1.934 2.18-1.188 5.6-3.591 9.49-6.74 1.132-.912 3.615-2.735 5.518-4.061 4.083-2.845 7.614-5.801 7.504-6.27-.028-.194.055-.277.22-.166.166.11 1.132-.553 2.153-1.437a114.18 114.18 0 0 1 4.055-3.398c3.752-3.01 5.325-4.475 6.787-6.298.772-.967 1.462-1.713 1.517-1.63.276.277-.69 5.497-1.241 6.63-.745 1.547-5.325 6.685-8.332 9.31-1.241 1.104-3.614 2.872-5.242 3.922-1.655 1.077-2.924 2.044-2.841 2.182.082.138-.028.166-.249.083-.551-.193-3.172 2.873-5.986 7.1-2.124 3.176-2.87 4.557-6.566 12.458-.773 1.63-1.793 3.536-2.29 4.282-1.959 2.873-6.814 8.59-12.249 14.447-6.621 7.1-8.607 10.11-9.38 14.226-.745 3.895-.441 6.133 1.048 7.763 1.049 1.16 2.263 1.38 3.89.746 2.787-1.105 3.89-2.349 5.656-6.382 1.6-3.646 3.007-5.856 6.4-10.027l2.594-3.177.082 2.182c.028 1.188.249 2.984.47 3.95.468 2.072.634 10.47.303 16.216-.166 2.845-.138 3.895.11 4.199.248.276.248.525.055.773-.469.58-1.655 4.696-1.82 6.409-.58 5.967-1.021 17.072-.718 18.646.331 1.713 1.187 3.48 1.628 3.398.138-.055.22.083.138.276-.166.442 1.076 1.16 1.628.94.634-.25 3.227-4.393 3.724-5.995.359-1.215.469-2.652.469-7.044 0-5.497-.166-7.044-.717-7.044-.193 0-.221.193-.11.47.358.883.496 8.977.165 11.519-.276 2.292-.386 2.596-1.904 4.972-.883 1.381-1.793 2.514-1.986 2.514-.717 0-2.152-2.265-2.483-3.895-.331-1.575-.166-6.575.552-16.547.414-5.69 1.82-9.31 4.359-11.27 1.38-1.078 2.096-.995 2.62.303 1.132 2.818 1.242 6.492.442 12.403-.304 1.99-.276 2.348.138 2.984.524.8 1.048.856 3.062.276 2.4-.718 4.828-3.674 5.518-6.713.165-.773.276-.856.827-.718.883.221 2.318-.276 3.256-1.16.441-.387.827-.663.91-.608.22.221-1.269 3.287-2.483 5.166-1.103 1.685-2.345 3.01-7.531 7.9-1.876 1.74-2.373 2.652-1.766 3.011.552.36 5.131-.718 6.76-1.574 1.6-.829 5.572-4.448 6.593-5.967.248-.387.524-.608.607-.525.33.304-1.794 6.05-3.145 8.591-.745 1.41-2.18 4.53-3.2 6.961-3.063 7.32-3.697 8.73-5.05 11.188l-1.268 2.348-.387-1.381c-.193-.773-.91-3.121-1.572-5.249-.662-2.127-1.38-4.861-1.628-6.05-.441-2.154-.607-2.596-.827-2.347-.249.22.938 5.331 1.876 8.204a71.884 71.884 0 0 1 1.517 5.276l.524 2.32-1.517 2.487c-.855 1.381-2.152 3.287-2.897 4.254-.717.994-1.241 1.906-1.159 2.072.11.166.083.22-.082.138-.138-.083-.745.331-1.352.94-.58.634-1.6 1.49-2.262 1.96-.663.442-1.076.94-.994 1.105.11.194.056.221-.11.11-.276-.165-2.538 1.106-2.538 1.41 0 .055.138.027.331-.083s.22-.083.11.138c-.11.166-.303.249-.441.166-.11-.083-1.076.359-2.097.967-1.048.607-2.041 1.104-2.234 1.104-.193 0-.359.111-.359.277 0 .442 1.435.304 2.731-.277 2.097-.966 8-5.607 7.808-6.16-.028-.138.055-.165.22-.055.166.11 1.407-.912 2.732-2.265 1.903-1.906 2.676-2.928 3.558-4.751.635-1.271 1.16-2.542 1.16-2.846 0-.304.606-1.63 1.323-2.955 1.683-3.011 2.29-4.31 4.745-10.249 1.104-2.652 2.842-6.52 3.863-8.563 1.793-3.647 2.593-5.69 3.393-8.868.607-2.43.193-2.458-1.6-.11-3.366 4.392-7.2 7.072-10.897 7.569-.993.138-1.849.193-1.931.11-.083-.055.662-.884 1.655-1.795 7.145-6.74 8.387-8.26 9.932-12.293.469-1.188 1.103-2.79 1.407-3.536.938-2.21 1.351-3.701 1.075-3.867-.303-.194-.469.083-1.103 1.961-.662 1.906-1.986 3.702-3.449 4.64-1.986 1.327-3.31.747-1.71-.745.524-.47 1.766-1.657 2.759-2.624 2.014-1.906 3.366-4.06 4.469-7.238a42.028 42.028 0 0 1 1.71-3.922c1.076-2.044 4.249-5.663 4.746-5.36.772.498.938 2.708.993 13.426.055 8.37.138 11.077.414 11.685.441.94 1.103.884 1.6-.166.58-1.188 1.434-9.088 1.434-13.204 0-3.094.083-3.757.414-3.757.22 0 .331.083.276.193-.055.11.11.83.414 1.603.303.773.8 3.232 1.103 5.497 1.462 10.607 1.518 10.856 2.428 10.856.276 0 .773-.249 1.104-.553.524-.497.607-.883.607-2.569 0-2.596-.91-9.64-1.794-13.977-1.13-5.608-1.02-6.768 1.656-15.635.496-1.686 1.103-4.586 1.351-6.492.249-1.906.497-3.757.58-4.144.58-2.9.993-5.967.91-6.602-.11-.746-.083-.773.524-.497.828.359 1.904-.11 2.345-1.05.966-2.127.938.276-.055 8.978-.938 7.983-1.462 17.624-1.269 22.79.304 8.287.69 14.64.883 15.138.33.856 1.297.442 2.041-.912l.69-1.243.166 3.591c.082 1.962.33 6.602.496 10.304.414 7.818.22 10.718-1.076 17.182-.469 2.348-.938 5.055-1.02 6.022-.194 2.155-.635 2.514-.663.553 0-.802-.165-1.962-.358-2.57-.69-2.292-2.373-1.96-7.587 1.52-4.773 3.204-6.456 3.591-7.67 1.74-.413-.635-.496-1.381-.496-5.055 0-2.348.11-7.155.22-10.635.249-6.437.083-8.564-.634-8.564-.386 0-1.738 3.62-1.517 4.2.055.165.027.358-.11.414-.11.055-.607 1.187-1.104 2.569-2.373 6.408-7.89 15.939-11.808 20.358-3.669 4.144-9.987 8.84-16.773 12.486-2.235 1.216-6.345 2.652-7.532 2.652-.8 0-.8-.055-1.269-2.265-.276-1.27-1.103-4.972-1.82-8.232-.745-3.26-1.683-7.817-2.07-10.082-1.572-9.144-2.73-13.95-3.338-13.95-.441 0-.496.33-.11.718.441.442 1.352 4.364 2.51 10.994.607 3.453 1.904 9.917 2.87 14.31.993 4.391 1.765 8.342 1.738 8.728-.028.415.11 1.022.275 1.354.194.36.663 1.989 1.021 3.674.745 3.287 1.435 5.249 1.821 5.249.359 0 .303-.774-.138-1.465-.193-.331-.58-1.546-.855-2.68-.248-1.132-.524-2.32-.607-2.596-.11-.386.303-.138 1.324.774 4.028 3.536 8.773 4.254 14.787 2.237 1.159-.386 2.18-.607 2.262-.497.11.11.138.193.056.166-.304-.166-1.683.8-1.518 1.077.11.193.083.221-.11.11-.331-.193-3.752 2.183-5.131 3.536-2.594 2.625 2.096 2.293 11.007-.773 9.353-3.204 16.912-6.492 22.43-9.806 1.24-.746 2.261-1.244 2.261-1.078 0 .138.138.166.332.055.193-.11.22-.082.11.139-.11.165-.304.248-.442.165-.33-.193-2.262 2.293-2.041 2.652.11.194.083.249-.083.166-.165-.11-.91.608-1.683 1.574-.8.967-2.29 2.459-3.365 3.37-2.014 1.686-2.263 2.045-1.407 2.045.607 0 1.213-.636.91-.967-.11-.138-.055-.138.11-.055.745.414 10.705-10.967 12.801-14.641.47-.801.883-1.464.938-1.464.055 0-.303 1.298-.827 2.9-.525 1.575-.938 3.315-.938 3.868 0 1.215.8 2.817 1.93 3.978 1.077 1.05 4.167 2.541 6.898 3.315 2.538.69 12.028 2.237 13.932 2.237 1.324 0 1.407.055 2.124 1.188 1.572 2.486 3.173 3.425 4.91 2.845.718-.22 1.104-.608 1.49-1.409.718-1.464.745-6.326.056-10.276-.276-1.547-.58-4.779-.69-7.182-.138-3.591-.083-4.834.303-6.989.745-3.895 1.545-10.138 1.876-14.502.166-2.128.552-5.802.856-8.15a903 903 0 0 0 .965-8.563c.248-2.348.497-4.337.58-4.42.165-.166 4.772 2.182 16.083 8.287a329.208 329.208 0 0 0 8.277 4.282c4.8 2.403 12.994 6.823 14.125 7.624.386.304.827.525.965.525.249 0 9.132 14.724 14.015 23.204 2.98 5.194 6.814 11.409 7.504 12.155.303.331.359.331.359-.055 0-.249-.718-1.547-1.6-2.9-2.235-3.399-2.98-4.642-5.573-9.2-1.27-2.21-5.077-8.674-8.497-14.364-5.463-9.144-9.132-15.387-11.09-18.923-.718-1.298-.884-1.574-3.973-6.85-1.325-2.238-2.539-4.006-2.677-3.923-.137.11-.193 0-.11-.193.083-.194-.993-1.99-2.372-3.95-1.407-1.99-3.835-5.525-5.435-7.873-4.8-7.072-12.801-17.57-13.298-17.459-.165.028-.248-.055-.138-.22.11-.167-1.6-2.376-3.78-4.918-2.179-2.541-5.075-6.05-6.427-7.79-2.759-3.563-8.304-9.392-8.939-9.392-.248 0 .883 1.326 2.51 2.983 1.629 1.63 4.387 4.752 6.098 6.962 1.738 2.21 3.31 3.978 3.503 3.922.166-.027.249.056.138.221-.082.166 1.6 2.376 3.78 4.917 4.552 5.304 10.29 12.79 14.842 19.392 1.71 2.514 4.276 6.16 5.656 8.15 3.42 4.889 5.407 8.066 10.483 16.988 2.4 4.171 4.607 7.9 4.939 8.26.579.663.579.663-.387-.028-1.186-.884-8.662-4.945-14.373-7.817-3.89-1.962-9.27-4.78-16.801-8.84-1.6-.856-4.056-2.127-5.435-2.79l-2.566-1.243v-4.613c0-6.824-.469-12.459-2.18-26.713-.744-6.16-2.04-10.304-3.006-9.696-.607.387-.635 4.089-.083 14.807.745 14.668 1.27 33.867 1.048 39.226-.082 2.348-.386 5.828-.634 7.734-.359 2.597-.47 5.415-.442 11.326v7.845l-1.213 6.658c-.663 3.646-1.435 7.348-1.656 8.204-.496 1.685-1.407 2.818-2.207 2.652-.634-.11-3.145-4.834-4.083-7.68-1.517-4.53-1.572-6.519-1.269-35.22.138-13.895.11-14.503-1.655-26.574-.47-3.205-.938-7.928-1.104-11.05-.303-5.994-.579-8.59-1.379-13.204-.276-1.685-.662-4.53-.828-6.354-.165-1.823-.358-3.536-.441-3.812-.083-.248-.138-1.602-.138-2.956 0-1.574-.11-2.486-.303-2.486-.276 0-.166 6.188.137 7.597.083.304.221 1.547.304 2.762.11 1.216.496 3.95.855 6.078.8 4.806.91 5.911 1.242 12.43.165 2.873.662 7.735 1.103 10.774 1.904 13.204 2.042 16.823 1.573 41.021-.331 16.216.055 19.116 3.227 25.47 1.242 2.486 1.656 3.536 1.407 3.646-.358.138-6.98-.801-11.228-1.602-7.145-1.354-11.532-4.227-11.532-7.624 0-.442.359-1.962.828-3.37 1.02-3.232 2.317-8.978 3.035-13.62.303-1.988.938-5.496 1.407-7.817 1.158-5.966 1.351-9.475.993-17.32-.193-3.646-.304-11.63-.276-17.762.055-6.989-.028-11.105-.193-11.05-.138.055-.331 2.652-.414 6.022-.11 3.812-.303 6.52-.58 7.57-.386 1.63-1.324 3.48-1.765 3.48-.331 0-.497-2.127-.883-10.856-.276-6.63-.276-8.702.11-14.917.249-3.978.8-10.221 1.214-13.868.745-6.795.745-9.254-.027-9.254-.193 0-.497.415-.69.94-.441 1.408-1.131 1.906-2.317 1.685l-.993-.194v1.188c0 .663-.304 3.011-.663 5.221-.358 2.21-.855 5.276-1.103 6.796-.22 1.547-1.048 4.889-1.82 7.458-1.85 6.105-2.015 8.15-1.022 13.232 1.849 9.42 2.4 15.884 1.407 16.27-.22.083-.33.277-.248.442.083.139 0 .194-.248.111-.635-.249-.938-1.492-1.683-7.43-1.02-8.122-2.345-12.432-3.366-10.83-.11.166-.303 2.57-.386 5.304-.276 7.21-.966 12.57-1.628 12.57-.552 0-.662-1.686-.717-11.465-.028-5.773-.138-11.16-.248-11.989-.193-1.436-.883-2.513-1.573-2.513-.193 0-1.214.884-2.234 1.989-1.876 1.989-3.697 5.193-4.608 8.093-.938 3.04-3.669 6.768-6.29 8.592-.33.22-.552.524-.496.635.082.11-.028.22-.221.22-.276 0-.331-.22-.138-.855.138-.47.386-3.757.524-7.32.166-3.537.331-6.52.414-6.658.055-.11.303-1.796.552-3.757.524-4.503.745-5.718 1.959-10.331 1.351-5.11 2.4-8.509 3.117-9.862 1.214-2.404 3.476-4.337 7.89-6.713 3.697-2.016 7.863-4.42 10.484-6.077 3.338-2.1 4.138-2.514 4.441-2.21.138.138 1.242.414 2.456.58 1.186.166 3.862.773 5.903 1.354 2.07.58 4.111 1.132 4.525 1.215.469.11 2.069 1.437 4 3.26 3.338 3.149 5.16 4.585 5.49 4.254.11-.083-.11-.387-.496-.636-.883-.635-2.925-2.458-5.518-5l-2.097-2.044-3.834-1.077c-4.084-1.16-6.622-1.74-8.746-2.044-.717-.083-1.241-.304-1.131-.442a.518.518 0 0 1 .469-.221c.193.027.524-.028.745-.11.22-.084 2.124-.747 4.22-1.437 4.139-1.354 7.753-3.039 7.505-3.453-.083-.138.027-.193.248-.11.552.22 4.662-3.896 6.235-6.216 2.097-3.122 4.055-7.597 4.662-10.663.91-4.613.966-5.994.359-9.806a261.41 261.41 0 0 1-.745-4.973c-.083-.828-.58-3.149-1.076-5.11-.524-1.99-.91-3.619-.883-3.647.193-.22 5.573 1.768 7.063 2.625 2.455 1.326 5.6 3.701 6.428 4.806.58.746 1.848 3.288 1.848 3.702 0 .055-.248.11-.551.11-.91 0-1.104.912-1.104 5.056 0 3.094-.386 13.038-.662 17.237 0 .331.11.635.248.69.166.056.745-1.96 1.297-4.474 1.738-7.652 2.29-12.017 1.903-15.194-.138-.994-.193-1.823-.165-1.878.11-.11 8.69 8.01 15.311 14.447 3.118 3.067 7.642 7.293 10.07 9.392 5.986 5.249 10.18 9.365 14.815 14.558 2.151 2.376 4.027 4.254 4.165 4.171.166-.082.193-.027.083.139-.11.193.386.994 1.159 1.906.772.884 2.455 2.9 3.78 4.502 3.834 4.641 8.58 9.365 17.656 17.597 3.007 2.707 4.524 3.95 8.745 7.1 1.766 1.325 3.587 2.872 4 3.425 2.4 3.121 2.4 3.287.387 9.309-.91 2.735-1.987 6.022-2.373 7.293-1.545 4.972-3.531 7.762-5.462 7.762-1.104 0-3.421-1.464-5.684-3.564-.827-.745-1.627-1.298-1.765-1.215-.166.083-.193.028-.083-.166.138-.193-.441-.994-1.435-2.044-1.958-2.044-2.262-2.376-17.435-19.944-14.539-16.796-20.195-23.84-22.622-28.122l-.883-1.574h.662c.828 0 3.31 1.574 5.876 3.729 5.545 4.696 11.504 9.862 13.16 11.409 1.13 1.077 1.986 1.685 2.18 1.547.192-.11.247-.083.165.083-.11.165.027.47.276.663.248.22 1.848 1.906 3.53 3.756 6.429 6.962 11.367 13.702 12.581 17.072.248.746.441 1.409.414 1.464-.055.028-.524-.138-1.076-.359-1.131-.47-1.573-.525-1.573-.193 0 .11.58.414 1.27.69 1.544.553 2.151.276 1.848-.884-.773-3.232-6.649-11.436-13.325-18.563-3.863-4.144-15.229-14.199-21.38-18.95-1.629-1.243-3.394-2.072-4.222-1.961-1.572.165-.662 1.933 4.718 9.143 3.53 4.696 5.048 6.63 7.2 9.033.635.69 5.766 6.63 11.45 13.204 5.655 6.547 10.427 11.851 10.593 11.74.165-.082.193-.027.083.166-.249.415 5.904 7.486 6.4 7.32.193-.055.276.028.193.194-.248.387 3.476 4.171 3.945 3.978.193-.055.304-.028.193.11-.193.332 1.739 1.851 3.008 2.376 3.448 1.464 5.683-.912 8.028-8.563a245.27 245.27 0 0 1 2.4-7.404c1.103-3.287 1.352-4.309 1.186-5.11-.469-2.541-1.876-4.171-6.593-7.735-4.994-3.784-6.677-5.22-14.374-12.403-5.076-4.724-9.104-8.95-12-12.514-7.477-9.254-15.726-17.9-23.726-24.861-2.51-2.182-7.09-6.464-10.208-9.53-8.083-7.9-15.394-14.641-15.753-14.558-.165.027-.193-.056-.11-.221.11-.166-.083-1.05-.414-1.962-.717-1.85-2.869-4.502-3.503-4.281-.221.083-.304.055-.221-.11.303-.498-6.29-4.42-7.449-4.42-.69 0-.469-.387.47-.83 2.289-1.104 2.454-4.723.496-12.292-.966-3.785-1.159-4.972-1.297-8.204-.11-3.067-.083-4.006.276-4.89 1.186-2.928 1.959-11.574 1.572-17.182-.275-3.895-.33-4.282-1.103-8.26-.304-1.547-.635-5.138-.828-8.784-.413-8.923-1.986-23.37-3.559-32.707-1.075-6.381-3.062-15-4.717-20.524a529.81 529.81 0 0 1-2.097-7.045c-1.214-4.337-2.593-6.63-7.862-13.26-2.87-3.563-9.132-8.563-13.932-11.076-1.214-.636-1.27-.636-1.628-.166-.193.304-.303.718-.193.967.165.387.193.359.276-.166.055-.331.22-.608.358-.608.663 0 6.842 4.144 9.518 6.381 3.31 2.763 3.587 3.04 7.642 8.343 3.31 4.31 4.194 5.967 5.435 10.276a254.18 254.18 0 0 0 1.959 6.492c1.241 4.005 3.503 13.618 4.497 19.198 1.682 9.337 4.662 37.9 3.89 37.1-.276-.277-4-14.393-4.553-17.266-.69-3.646-1.793-12.817-2.344-19.557-.221-2.9-.497-6.133-.58-7.183-.58-6.96-3.2-18.922-4.855-22.237-1.049-2.044-2.18-3.066-2.925-2.597-.496.332-.579 1.299-.276 3.37.221 1.547-.11 1.271-.827-.69-.717-1.934-2.676-5.221-3.062-5.138-.166.055-.221-.11-.138-.332.22-.58-6.897-7.707-7.477-7.486-.248.083-.358.056-.276-.11.166-.276-2.4-1.658-3.062-1.658-.828 0-.883.719-.22 2.763 2.344 7.21 4.413 12.265 5.876 14.53l.579.829h-1.297c-1.876-.028-1.82.525.249 2.928a172.472 172.472 0 0 1 3.09 3.674c.744.911 1.462 1.63 1.6 1.574.138-.027.165.056.082.221-.11.166 0 .525.221.774.8.884 4.028 6.712 5.242 9.53 2.317 5.304 5.297 15.94 5.104 18.15-.11 1.16-.138 1.16-1.6-3.592-4.332-14.005-6.76-18.701-11.753-22.68-1.02-.8-1.904-1.298-2.07-1.187-.192.11-.247.083-.137-.11.165-.305-4.718-3.509-6.373-4.172-1.683-.69-1.903.304-.634 2.707.855 1.575 1.793 2.735 6.786 8.343 5.242 5.884 10.842 13.425 12.608 16.96.855 1.741 1.986 4.89 2.676 7.515.938 3.48.69 14.861-.552 26.187-.303 2.735-.58 5.332-.607 5.746-.027.442-.248.94-.469 1.105-.303.248-.358.248-.22 0 .11-.166.082-.387-.083-.497-.138-.083-.91 1.215-1.738 2.955-.8 1.713-2.51 4.973-3.752 7.238-2.4 4.282-4.856 9.503-6.263 13.26-.69 1.85-.938 2.237-1.683 2.54-.496.222-1.296.388-1.793.388l-.91-.028.662-.525c.359-.304.883-.552 1.186-.552.745 0 1.656-.525 1.462-.857-.11-.138-.358-.248-.579-.248-.22 0-.331.11-.248.276.083.166-.028.193-.249.11-.496-.193-.524-.359-.165-.939.165-.248.138-.552-.083-.829-.276-.331-.276-.359.083-.11.634.497 1.738-.028 1.517-.69-.11-.36.249-1.16 1.104-2.487.717-1.105 1.71-3.177 2.234-4.668.525-1.464 1.214-3.177 1.49-3.785.304-.607.607-1.712.69-2.458.11-.995.58-2.155 1.683-4.089 3.78-6.712 4.524-9.392 4.524-16.712 0-2.597.138-5.718.304-6.906.193-1.188.33-4.033.358-6.298.028-5.442-.551-7.32-3.641-11.437-.828-1.132-2.345-3.646-3.366-5.58-2.18-4.116-3.283-5.773-4.387-6.657-.469-.36-1.958-1.934-3.338-3.536-1.407-1.602-2.98-3.287-3.53-3.73-1.518-1.27-2.815-2.126-2.815-1.878 0 .11-.22-.11-.497-.497-.248-.414-.69-1.05-.965-1.436-.276-.36-.552-.94-.607-1.271-.11-.58-1.931-2.403-3.89-3.895-.497-.387-.91-.774-.938-.856 0-.083.883-.25 1.959-.36 2.124-.193 3.78-.884 4.331-1.823.58-.939.166-.994-.69-.083-.441.442-1.213.967-1.738 1.133-1.324.414-5.241.635-5.159.276.138-.69-7.835-4.503-9.848-4.724-.332-.027-.635-.138-.718-.248-.248-.304-4.386-.774-7.035-.774-1.434 0-3.503-.11-4.607-.276-15.063-1.989-15.45-2.044-18.07-1.823-3.724.276-6.125.884-13.187 3.26-10.925 3.674-15.367 5.414-20.719 8.066-2.786 1.409-5.076 2.458-5.076 2.348 0-.276 6.925-4.033 11.311-6.16 11.78-5.663 25.712-9.558 37.354-10.415 5.821-.414 12.47.111 17.546 1.41 4.745 1.215 9.794 1.988 13.16 2.016l3.366.055 1.158-1.105c1.518-1.464 2.18-2.928 2.18-4.89 0-1.38.055-1.574.496-1.436.331.11.304 0-.165-.414-.524-.47-.69-.995-.883-3.039-.138-1.353-.414-2.79-.58-3.177-.275-.58-.248-.8.083-1.187 1.049-1.243 1.38-4.42.607-5.912-.22-.47-.993-1.215-1.71-1.657-1.186-.746-5.049-2.183-6.18-2.266-.248-.027-.441-.11-.414-.193.11-.304-2.096-3.01-2.345-2.873-.138.083.138.663.607 1.299.442.607.828 1.215.828 1.326 0 .11-.47.082-1.02-.028-.58-.138-3.09-.497-5.629-.801-11.835-1.492-27.588.11-37.906 3.867-3.31 1.188-10.787 5.028-10.676 5.47.027.193-.055.276-.221.165-.359-.22-5.656 3.288-8.966 5.967-5.932 4.807-19.394 17.873-19.036 18.48.138.222.11.305-.055.194-.386-.249-2.124 1.63-1.876 1.989.083.193.028.276-.166.249-.193-.056-.772.497-1.324 1.243-.551.718-1.02 1.188-1.076 1.05-.11-.332 3.449-6.99 4.69-8.813 3.725-5.47 8.47-11.16 14.54-17.32 5.268-5.387 8.248-7.707 14.51-11.381 8.415-4.945 12.14-6.16 23.009-7.541 3.614-.47 6.29-.58 13.104-.636 8.332-.055 8.608-.027 9.904.553.718.331 1.297.497 1.297.331 0-.138-.58-.525-1.297-.856-1.186-.553-1.848-.608-6.428-.663-2.814-.028-7.2.055-9.793.166zm16.828 7.874c1.987.248 4.663.607 5.987.856 2.841.525 3.172.801 5.49 4.724.772 1.326 1.793 2.955 2.262 3.59.855 1.216 1.186 2.514.635 2.487-.166-.028-1.021.193-1.876.442l-1.573.497-2.152-1.27c-3.862-2.266-10.621-4.559-16.222-5.525-6.98-1.188-17.325-.11-25.353 2.651-7.007 2.431-15.587 6.41-20.856 9.696-1.545.967-5.656 3.895-9.187 6.547-3.532 2.652-7.449 5.498-8.746 6.326-1.296.829-2.483 1.713-2.676 1.962-.193.248-.358.386-.358.303-.193-.828-.193-1.077-.028-.966.276.165 2.566-2.183 2.373-2.431-.083-.11-.056-.138.055-.056.083.083 1.848-1.519 3.917-3.535 2.07-2.017 5.132-4.89 6.787-6.382 1.683-1.519 3.007-2.872 2.952-2.983-.028-.138.055-.193.193-.11.138.11.745-.277 1.324-.83.58-.552 1.049-.966 1.049-.91 0 .054.965-.636 2.124-1.492a96.342 96.342 0 0 1 4.635-3.205c1.351-.884 2.4-1.657 2.317-1.74-.083-.11.028-.138.22-.138.194.027 2.29-.912 4.635-2.072 4.553-2.265 7.504-3.343 12.14-4.448 8.745-2.099 21.545-2.955 29.932-1.988zm11.311 2.071c.607.194 1.876.746 2.814 1.243.91.525 1.766.884 1.849.801.082-.055.11-.027.027.056-.055.11.055.525.276.967.69 1.326.386 4.447-.524 5.193-.386.331-1.435-1.133-4.856-6.796-.662-1.077-1.324-1.906-1.462-1.823-.165.083-.193.028-.082-.166.137-.22.33-.248.524-.082.193.138.827.414 1.434.607zm-18.732 4.282c4.635.829 9.683 2.459 13.85 4.475 2.096 1.022 3.034 1.63 2.868 1.796-.165.165-4.8.386-11.835.525-6.345.11-12.635.359-14.015.524-12.138 1.464-19.118 3.481-29.105 8.426-5.324 2.652-7.56 4.005-12.966 7.845-2.51 1.768-5.021 3.508-5.6 3.867-.552.332-.939.746-.856.912.11.166.055.22-.083.138-.358-.221-6.041 3.039-5.959 3.398.055.138-.082.193-.276.11-.413-.165-3.503 2.542-3.503 3.094 0 .58.138.497 1.572-.94.745-.745 3.228-2.458 5.766-3.977 2.456-1.464 6.483-4.116 8.966-5.884 5.27-3.757 8.332-5.635 13.49-8.177 6.898-3.397 13.353-5.69 19.56-6.878 6.98-1.381 10.732-1.685 22.926-1.934 6.456-.138 12.084-.359 12.498-.47.855-.248 1.13-.054 4.497 3.04.8.745 1.6 1.27 1.765 1.16.166-.083.276-.083.248.055-.027.11.028.442.138.69.249.553-.055 5.056-.33 4.78-.139-.139-2.125 2.126-2.07 2.347.028.083-.855.194-1.986.25-2.649.082-7.863-.636-12.829-1.769-5.6-1.298-6.869-1.492-11.2-1.768-6.29-.387-14.567.332-20.774 1.796-10.815 2.569-18.732 5.331-26.87 9.392-5.16 2.597-14.209 7.9-14.567 8.563-.193.36-.47.663-.635.663-.496 0-5.186 3.122-6.483 4.31-1.214 1.077-5.048 5.911-5.959 7.486-.496.856-1.186 1.298-.883.552.083-.165.524-1.215.966-2.265 1.076-2.541 5.462-11.077 6.318-12.21.662-.911.827-1.326.386-1.05-.138.083-.331.028-.442-.11-.082-.166.083-.22.387-.166.634.11 2.372-1.906 2.069-2.43-.11-.166-.083-.25.027-.111.304.276 1.27-.635 1.049-.995-.083-.138-.028-.193.11-.11.303.193 1.02-.442.772-.69-.082-.056.028-.139.194-.139.634 0 4.083-2.348 3.89-2.652-.083-.165-.028-.193.165-.083.386.25 3.173-1.602 8.083-5.386a260.02 260.02 0 0 1 6.925-5.138c1.848-1.299 3.338-2.486 3.283-2.625-.028-.138.055-.193.193-.11s1.352-.47 2.676-1.27c5.214-3.012 14.622-7.072 20.608-8.896 2.925-.884 7.697-1.878 10.4-2.182 2.787-.304 10.319-.166 12.581.221zm30.678 3.84c.745.387 2.014 1.243 2.869 1.933.855.691 1.573 1.216 1.628 1.188.055-.027.082 0 .055.056-.055.055.772 1.022 1.82 2.099 3.146 3.342 4.994 6.381 6.65 11.05 1.186 3.397 1.765 5.994 2.758 12.292.47 2.956 1.159 7.265 1.518 9.586.386 2.293.69 4.502.69 4.917 0 .387.082.663.22.608.11-.083.22.69.276 1.685.027.994.027 1.768-.055 1.685-.083-.056-.47-1.354-.856-2.846-1.462-5.47-3.89-11.16-6.924-16.187-1.766-2.928-3.642-5.415-4-5.332-.138.056-.221-.027-.166-.165.11-.415-1.214-1.99-1.517-1.796-.166.11-.221.083-.138-.083.11-.138-.386-.94-1.049-1.713-1.379-1.63-1.545-2.099-.607-1.795.332.138.883.22 1.214.249.331 0 .552.027.525.055-.028.055.8.939 1.848 2.016 1.434 1.437 2.014 1.851 2.29 1.63.22-.193.386-.193.524.028.11.166.083.276-.055.248-.69-.11-.635.138.193.995.993 1.022 1.545 1.27 1.269.525-.083-.249-.055-.332.11-.249.166.11.249.387.22.635-.054.304.084.47.387.442.276-.027.414.056.331.194-.083.138-.027.248.138.248.773 0 .386-.663-1.434-2.43-1.076-1.078-2.621-2.459-3.421-3.067-2.29-1.85-4.166-5.027-6.015-10.248-2.62-7.404-3.145-9.116-2.758-9.116.082 0 .745.304 1.462.663zm-7.642 2.127c.331.635.8 4.668.524 4.668-.11 0-.276-.083-.386-.22-.11-.111-.359-.194-.524-.194-.193-.028-.304-.166-.276-.332.083-.442-1.545-1.795-1.904-1.574-.165.11-.22.055-.11-.11.083-.139-.166-.525-.58-.83-.44-.303-.717-.607-.634-.69.166-.11 3.062-1.215 3.366-1.27.11 0 .33.22.524.552zm22.512 9.696c.883.967 1.959 3.287 2.565 5.525 1.766 6.547 3.311 15.497 3.725 21.63.58 8.728 1.959 20.413 2.924 24.944.304 1.464 1.518 6.105 2.649 10.276 2.151 7.873 2.593 10.525 2.4 14.917-.028.994-.138 5.11-.249 9.171-.11 4.088-.33 7.403-.44 7.403-.139 0-.25-.718-.25-1.602 0-.856-.137-2.624-.275-3.923-.138-1.298-.386-5.082-.552-8.425-.386-8.342-1.434-14.42-4.028-23.176-2.29-7.735-3.559-14.669-3.834-20.884-.221-5.11-.607-7.818-2.649-17.9-3.2-15.884-3.614-18.564-2.952-18.564.22 0 .662.276.966.608zm-60.418 4.392c2.4.304 5.738.746 7.394.967 1.683.22 5.269.525 8 .663s5.6.442 6.345.635c4.8 1.381 10.787 4.282 10.484 5.083-.055.221.083.36.386.36.276 0 .828.248 1.186.552.387.276.8.442.883.331.11-.11.166-.055.11.11-.055.166.718 1.05 1.711 1.934.993.884 1.82 1.823 1.82 2.1.056.69.911 1.933 1.215 1.74.165-.083.193 0 .11.221-.165.47.938 1.354 1.352 1.105.165-.083.193-.055.11.11-.193.277 1.435 1.354 1.876 1.216.166-.028.193.028.055.138-.248.276 2.014 2.624 2.345 2.431.138-.083.193 0 .166.221-.055.193.083.331.276.276.22-.027.303.055.193.194-.083.165.607 1.105 1.517 2.127.938 1.05 1.655 2.071 1.655 2.43 0 .608 1.38 2.431 3.449 4.586.662.69 1.71 2.182 2.345 3.315 1.545 2.735 3.559 5.58 3.862 5.387.11-.056.193.083.166.359 0 .248.138.442.33.387.222-.028.304.027.222.165-.083.11.165.857.524 1.63 1.545 3.204 1.793 6.188 1.103 12.928-.22 2.127-.414 5.884-.414 8.315 0 5.22-.441 7.79-1.82 10.829-.525 1.132-.856 2.182-.745 2.375.083.166.055.221-.055.083-.194-.166-1.242 1.464-2.456 3.867-.441.912-.717.774-.717-.414 0-1.989-1.435-3.453-4.276-4.365-.745-.248-2.925-1.05-4.828-1.795-5.987-2.32-9.463-3.619-11.311-4.171-2.235-.69-6.566-.829-7.283-.249-.414.36-.442.332-.194-.331.332-.857.138-1.575-.386-1.575-.607 0-1.71 1.52-2.372 3.315-.359.912-.745 1.657-.856 1.657-.11 0-.662-.442-1.213-.966-1.16-1.133-1.904-1.382-3.56-1.133-1.765.276-2.648 1.16-4.11 4.226-1.71 3.509-2.51 5.94-3.035 9.2a175.45 175.45 0 0 1-.993 5.248c-1.572 7.541-1.793 9.337-1.82 15.745-.028 3.426-.056 6.492-.083 6.824 0 .359-.387 1.022-.828 1.519-.772.884-.8.884-1.517.414-.91-.607-1.49-.331-.828.387.248.276.635.525.828.525.524 0 1.407 1.27 1.6 2.32.33 1.74-.828 5.083-2.428 6.962-.496.607-1.297 1.685-1.82 2.403-.994 1.381-1.739 1.768-2.98 1.464-.414-.11-.966-.221-1.214-.276-.276-.028-.58-.166-.69-.304-.138-.11-.055-.138.138-.028.552.332.386-.801-.193-1.326-.607-.552-3.007-.69-6.042-.331-2.427.276-3.393-.056-4.22-1.41-.332-.524-.69-1.657-.828-2.513-.773-5.304-.91-5.69-2.235-6.105-.966-.276-4.773-.58-8.91-.663-2.787-.083-3.477-.387-4.167-1.795-.358-.774-.386-1.16-.138-2.183.497-1.933 2.594-4.89 3.78-5.331.855-.332.883-.94.055-.69-.855.248-2.841 2.485-3.67 4.115-.992 1.962-.965 4.227.028 5.249 1.021 1.022 2.263 1.27 6.125 1.27 2.042 0 3.366.111 3.366.277 0 .138-.359.276-.773.276-.993 0-2.069 1.077-1.93 1.961.11.83 1.627 1.326 4.772 1.547 1.352.083 2.648.277 2.841.442.166.138.331.801.331 1.492 0 .746.276 1.74.718 2.597 1.02 2.016 1.876 2.32 5.628 1.96 3.2-.303 4.497-.192 4.993.388.248.331.138.386-.634.386-1.076 0-1.6.415-1.6 1.243 0 1.382 1.793 1.713 2.73.525.442-.58.635-.635 1.104-.414.69.387 2.125.387 2.787.028.303-.166 1.048-.995 1.655-1.879.607-.856 1.545-2.182 2.069-2.928 1.71-2.376 2.428-6.492 1.38-8.094-.442-.663-.442-.718.22-1.436 1.076-1.105 1.214-2.238 1.076-7.79-.138-5.36.166-8.205 1.628-15.442.276-1.436.772-4.06 1.048-5.829.607-3.453 1.628-6.547 3.421-10.165 1.324-2.652 2.07-3.343 3.89-3.536 1.186-.138 1.352-.083 2.51.994 1.766 1.602 2.07 1.52 3.145-.911.497-1.133 1.104-2.238 1.38-2.486.441-.415.469-.36.276 1.022-.11.773-.221 1.63-.221 1.878-.028.36-2.235 2.182-2.676 2.182-.11 0-.662.387-1.241.857-1.463 1.16-1.794 2.458-1.352 5.276.469 2.9.33 3.315-1.656 4.503-1.82 1.105-3.917 3.314-3.807 3.977.083.304.387.442.966.415.69-.055.91.083.965.525.056.331.635.994 1.325 1.519.69.497 1.462 1.105 1.738 1.326.248.22.607.387.745.387.358 0 5.49 3.674 5.49 3.922.027.11-.166.138-.387.055-.22-.11-.413-.055-.413.056 0 .386 6.317 4.31 7.559 4.696.634.193 2.041.525 3.145.69 1.076.194 1.986.415 1.986.47 0 .083-.193.387-.469.663-.717.773-.193.912.58.138.634-.635.855-.69 2.372-.552 1.297.138 1.655.083 1.655-.221-.027-.58-1.545-2.487-1.82-2.238-.11.11-.056-.028.137-.276.359-.47 1.021-.414.718.055-.193.332 1.462 1.575 2.427 1.796.414.11.745.276.745.386 0 .139-.358.884-.827 1.713-.442.829-.828 1.713-.828 2.017 0 .276-.22.911-.524 1.38-.883 1.493-1.159 3.426-1.076 7.625.083 3.867.055 4.06-.662 5.635-.442.884-.69 1.713-.607 1.851.083.138.055.221-.083.194-.414-.11-2.483 1.132-2.676 1.574a4.204 4.204 0 0 0-.165 1.077c0 .36-.36 1.105-.828 1.686-.442.552-.745 1.16-.635 1.325.083.139.028.194-.11.111-.386-.221-2.07 1.713-1.82 2.1.082.138.027.193-.139.082-.33-.193-3.255 2.238-3.145 2.652.028.138-.027.194-.165.11-.387-.248-11.587 9.117-11.45 9.559.056.138-.027.193-.165.138-.276-.056-7.752 5.193-9.96 7.016-2.896 2.403-6.84 5.166-8.882 6.27-1.132.609-2.925 1.714-3.973 2.46-1.048.773-2.814 1.905-3.89 2.568-1.131.663-1.931 1.299-1.82 1.464.082.166.027.194-.166.083-.193-.138-.773.11-1.352.553-1.821 1.381-4.745 4.31-4.552 4.613.083.166.027.193-.138.083-.193-.11-.331-.11-.331.028 0 .11-.331.58-.717 1.05a43.995 43.995 0 0 0-1.242 1.519l-.497.69-.027-.746c0-1.022-1.02-1.74-3.559-2.541-1.82-.58-4.58-1.16-4.993-1.077-.083.027-.138-.663-.166-1.52 0-.911-.22-1.961-.497-2.486-.44-.856-3.945-3.84-4.33-3.73-.497.167.385-1.767 1.158-2.568 1.462-1.52 2.124-1.658 5.104-1.105 1.434.276 2.814.414 3.09.304.248-.11 1.71-.249 3.227-.277 3.587-.11 5.6-.773 9.104-2.928 3.697-2.237 5.049-2.928 6.373-3.149 1.959-.304 2.318-.414 2.318-.69 0-.166-.525-.194-1.242-.083-1.048.138-1.241.083-1.241-.304 0-.249-.193-.442-.414-.442-.248 0-.966-.497-1.655-1.133-.966-.884-1.435-1.657-2.207-3.729-.773-1.989-1.27-2.818-2.125-3.591-1.738-1.575-2.703-1.878-6.124-1.878-3.338-.028-2.925.193-4.663-2.514-1.214-1.879-2.538-2.542-5.655-2.735-1.324-.11-3.2-.36-4.194-.58-.993-.221-2.98-.663-4.414-.967a505.67 505.67 0 0 1-5.904-1.409c-1.793-.442-3.338-.773-3.393-.718-.11.138 3.559 1.215 4.938 1.464.552.083 1.242.332 1.518.553.469.359.469.359-.028.386-.772 0-4.993-1.05-6.676-1.685-1.573-.58-2.042-1.188-.717-.939.413.083-1.104-.58-3.339-1.492-5.38-2.182-6.041-1.961-3.31 1.105.855.967 2.097 2.127 2.759 2.57 1.269.828 1.93.828.938 0-.304-.277-.497-.58-.442-.691.083-.083-.386-.525-1.048-.967-2.317-1.547-3.531-2.928-2.897-3.315.166-.11.22-.083.138.083-.11.166.138.414.58.58.413.138 2.51 1.105 4.69 2.127 3.53 1.657 4.414 1.961 8.552 2.818 2.538.524 5.159.994 5.848 1.077.69.055 2.897.22 4.939.387 4.414.359 5.49.8 6.593 2.652 1.655 2.79 1.545 2.734 5.076 2.762 3.394 0 4.056.221 5.849 1.796.69.607 1.241 1.546 1.959 3.425.8 2.072 1.269 2.818 2.234 3.73.662.607 1.325 1.104 1.49 1.104.138 0 .276.11.276.276 0 .47-2.455.304-4.442-.276-1.048-.331-2.841-1.077-4-1.713-1.986-1.077-2.29-1.132-5.186-1.353-3.808-.249-4.635-.525-6.373-2.182-.745-.719-2.235-1.796-3.31-2.376-1.05-.553-2.429-1.381-3.036-1.796-1.048-.69-3.586-1.878-5.103-2.32-.387-.11-1.242-.47-1.931-.774-2.235-.994-6.897-2.872-6.897-2.79 0 .056 1.324.774 2.979 1.603 5.71 2.873 8.994 5.386 11.173 8.59.607.912 1.242 1.713 1.352 1.769.138.027-.166.276-.635.552-1.655.829-1.572 3.039.221 5 .524.608 1.821 1.74 2.842 2.541 1.048.802 1.848 1.492 1.793 1.547-.055.056-1.214-.331-2.538-.911-3.531-1.492-4.663-2.044-5.435-2.652-1.324-1.022-3.945-4.862-5.49-8.011-1.517-3.066-5.462-8.73-5.987-8.619-.138.055-.193-.083-.138-.276.166-.47-.413-1.133-1.517-1.713l-.965-.47.882.912c.47.525 1.904 2.376 3.2 4.116 1.297 1.74 2.511 3.37 2.732 3.619.193.249.386.553.414.69.193.995 2.483 5.277 3.669 6.879.772 1.05 1.545 2.127 1.683 2.376.386.718 2.703 2.071 4.938 2.9 1.131.415 2.317.94 2.62 1.133.525.359.497.387-.192.22-1.159-.303-2.566.332-3.78 1.658-1.848 2.017-1.683 2.57 1.766 5.221.551.442 1.269 1.326 1.572 1.99.552 1.27.635 3.59.083 3.148-.607-.497-4.138-.884-6.87-.746-3.448.166-5.545.912-6.924 2.431-.883.995-.966 1.243-.966 2.735 0 2.707 1.049 4.254 3.614 5.331 1.545.636 3.173.83 4.221.47 1.545-.497 5.353-4.696 6.65-7.32.606-1.216 1.103-2.238 1.13-2.265 0-.056 1.27.22 2.814.607 4.607 1.133 6.014 2.1 5.187 3.647-.718 1.298-1.876 2.458-4.028 3.978-2.62 1.878-5.242 3.867-7.173 5.497-2.097 1.795-4.745 3.508-6.51 4.309-1.85.801-2.897.856-1.353.055 1.325-.69 1.38-.718 1.16-.939-.084-.11-.994.276-1.987.829-1.628.884-2.042.994-3.835.994-1.186 0-2.455-.166-3.007-.414-.552-.221-1.38-.414-1.848-.414-1.049 0-3.642-.857-6.042-2.017-.993-.47-1.959-.856-2.152-.829-.193 0-.304-.083-.276-.193.055-.193-2.483-2.293-4.773-3.923-.69-.497-2.924-2.265-5.02-3.978-2.07-1.712-3.863-3.01-3.973-2.928-.11.11-.11.056-.028-.11.166-.276-2.98-3.647-3.255-3.508-.083.055-.138 0-.138-.139-.028-.414-1.766-1.96-2.042-1.795-.165.083-.22.083-.11-.055.11-.11-1.352-1.851-3.283-3.84-4.856-5.083-8.856-10.497-11.78-15.967-2.538-4.779-6.483-14.64-6.925-17.348-.11-.69-.303-1.464-.441-1.712-.193-.36-.166-.442.138-.332.634.249.745-.331.276-1.685-.387-1.188-.387-1.768.055-3.26.083-.248.027-.47-.138-.47-.166 0-.304.25-.304.553 0 .857-.469.636-.662-.304-.524-2.68.249-8.37 1.6-11.823 3.366-8.425 5.408-14.613 8.304-25.165 1.463-5.36 1.96-6.575 4.635-11.492 3.007-5.552 6.814-15.303 8.58-22.071.386-1.381 1.655-4.669 2.87-7.32 2.979-6.547 3.42-7.46 3.751-7.46.166 0 .635-.717 1.049-1.601l.717-1.575.027 2.1c.056 5.027 2.4 7.54 9.215 9.806 2.593.856 3.283.995 4.773.856.938-.055 1.82-.027 1.958.11.138.14.718.415 1.324.609.773.276 1.104.552 1.132.967.055.911 1.076 2.292 3.255 4.42 1.407 1.38 2.042 2.182 1.959 2.513-.055.304.303.995.8 1.602.496.58 1.434 1.851 2.096 2.846 3.146 4.75 6.677 6.85 15.119 8.95 2.069.525 4.662 1.326 5.71 1.768 1.27.552 2.456.856 3.449.884 2.124.055 2.207.055 2.207-.442 0-.69-1.104-2.348-1.435-2.155-.165.11-.22.055-.11-.11.304-.525-2.731-4.448-3.476-4.503-.276 0-.276-.055-.028-.138.166-.083.635.055.994.304 1.241.8 1.186-.11-.11-1.41l-1.187-1.215h1.131c1.407 0 2.842-.276 2.842-.552 0-.11-.856-.138-1.932-.055-1.462.082-2.069.027-2.593-.304-.662-.442-.69-.415-1.186.248l-.524.719-1.462-.884c-1.49-.94-6.539-3.011-9.077-3.757-1.572-.442-2.455-1.216-3.393-2.956-.58-1.105-.966-3.37-.497-3.066.138.083.193.248.138.359-.083.11.497 1.077 1.297 2.127 1.71 2.293 2.98 3.01 7.035 4.116 1.793.47 2.814.884 2.814 1.132 0 .194.551.691 1.214 1.078.662.386 1.379.884 1.544 1.105.276.331.414.304.828-.221.304-.36.414-.719.276-.912-.166-.166.138-.387.91-.608 1.242-.331 2.925-1.547 2.621-1.85-.11-.11-.69 0-1.324.248-3.09 1.243-4.69 1.105-5.904-.497-1.324-1.74-8.994-6.188-8.994-5.221 0 .138 1.27.912 2.842 1.713 2.51 1.27 6.152 3.812 5.876 4.088-.22.221-6.124-1.657-7.062-2.265-1.131-.718-2.235-2.017-3.56-4.171-.882-1.464-1.047-1.934-.578-1.63.138.083 1.296.193 2.538.248 3.945.139 9.821 2.072 13.021 4.282 3.449 2.376 5.987 5.193 7.752 8.536 1.435 2.735 2.152 2.983.8.304-2.151-4.31-5.103-7.459-9.297-9.972-2.207-1.326-6.4-2.846-9.214-3.315-1.931-.304-1.986-.36-2.07-1.16-.11-1.05-1.296-1.907-3.475-2.514-4.8-1.354-5.297-1.547-6.4-2.597-.856-.801-1.104-1.243-1.104-1.961 0-.746.083-.857.496-.69 1.38.552 5.877 1.049 9.739 1.076 3.89.028 4.386-.027 4.91-.497 1.932-1.768-.91-4.171-5.434-4.585-4.138-.387-7.311.414-9.077 2.265-.413.414-.855.773-.965.773-.442 0-3.476-2.182-3.918-2.817-.524-.746-.58-1.99-.083-2.348.166-.166 1.628-.498 3.228-.801 2.29-.415 4.056-.525 8.415-.498 6.152.056 7.255.277 10.593 2.155.966.552 1.876.912 2.042.801.138-.083.193-.055.11.11-.082.139.607.774 1.545 1.41 5.573 3.673 13.436 11.684 18.043 18.286 1.82 2.625 2.593 3.094 5.324 3.122 1.214.028 1.904-.166 3.31-.884 3.008-1.547 3.67-2.514 1.656-2.514-.883 0-1.048-.083-.91-.442.193-.497-1.242-2.1-1.656-1.85-.165.082-.193.027-.11-.111.11-.166.083-.663-.055-1.077a46.643 46.643 0 0 1-.442-1.575c-.248-1.16-2.234-3.15-6.897-6.961-5.407-4.392-7.062-5.553-10.897-7.459-1.738-.884-3.724-1.989-4.414-2.486-2.372-1.713-4.304-2.403-8.938-3.204-2.98-.497-13.436-.166-16.498.552-1.324.304-2.676.69-3.035.884-.551.304-.551.36-.11.663.441.332.414.387-.276.94-.414.33-.91.58-1.103.58-.221 0-.387.193-.387.414 0 .22.166.331.359.248.276-.082.359.083.276.636-.166 1.16.8 2.43 2.731 3.701 1.628 1.05 1.738 1.188 1.931 2.404.138 1.05.414 1.491 1.297 2.293 1.076.966 1.545 1.16 5.959 2.43 2.4.719 3.614 1.437 3.78 2.293.11.608.055.636-1.408.553-2.814-.11-9.27-.94-9.6-1.216-.193-.138-.47-.193-.607-.083-.386.221-3.67-.607-5.407-1.38-1.076-.47-1.738-.58-3.035-.47-1.352.082-2.152-.056-4.276-.774-7.118-2.403-9.16-4.613-9.187-9.862 0-1.63.11-2.707.331-2.955.193-.221.248-.58.138-.746-.11-.194-.083-.249.083-.166.165.11.938-.718 1.71-1.85.773-1.133 2.152-2.957 3.035-4.062.91-1.105 1.572-2.154 1.49-2.292-.083-.166-.083-.221.055-.11.11.11.938-.388 1.82-1.133 1.628-1.299 6.015-4.034 8.746-5.387 1.297-.663 1.435-.801 1.104-1.188-.332-.414-.304-.414.193-.11.496.331 1.158.082 5.655-2.183 5.794-2.9 8.828-4.143 17.794-7.237 14.043-4.89 15.836-5.166 24.333-4.06zm44.444 7.486c.966.58 1.904.967 2.07.857.193-.083.248-.083.137.055-.11.11.8.911 2.042 1.74 2.759 1.906 5.407 4.503 6.814 6.657.58.912 1.159 1.575 1.27 1.465.137-.111.137-.056.054.138-.11.165.166 1.05.635 1.961 1.131 2.293 1.738 3.895 3.586 9.31 1.6 4.723 1.904 6.408.662 3.7-1.13-2.402-2.62-4.695-2.924-4.502-.193.11-.22.055-.11-.138.33-.525-6.263-8.867-12.387-15.663-2.483-2.735-3.725-4.447-4.36-5.967-.413-.966-.385-.966.194-.828.303.083 1.38.635 2.317 1.215zm-69.108 22.376c2.18.58 3.118.994 4.966 2.21 1.242.856 3.56 2.182 5.16 2.983 3.006 1.492 5.351 3.039 8.082 5.304.91.718 1.766 1.243 1.904 1.132.166-.083.22-.027.11.138-.22.36.91 1.216 1.297.967.166-.083.193-.055.11.11-.193.305 3.035 3.04 3.449 2.901.138-.027.193.028.11.166s.249.608.718 1.05c.938.884 1.848 2.68 1.876 3.618 0 .36.44 1.133.965 1.713.58.636.883 1.16.69 1.27-.69.415-.248.94.91 1.023l1.159.083-1.655.911c-2.483 1.354-3.31 1.547-5.242 1.078-1.655-.36-1.655-.387-3.393-2.846-2.594-3.673-6.18-7.9-9.298-10.911-3.42-3.342-6.759-6.077-7.117-5.856-.166.083-.193.027-.11-.11.165-.277-4.111-3.288-5.656-3.979-1.573-.69-.69-.745 1.793-.082 4.69 1.243 5.96 2.154 6.4 4.613.221 1.16.11 1.105 2.952 1.022 2.483-.055 3.808.166 3.808.69 0 .221-.221.857-.47 1.41-.468.966-.468.994.056 1.38.33.249 1.214.387 2.372.387 1.876 0 3.283.387 3.283.912 0 .165-.552.8-1.241 1.464-1.38 1.27-1.628 2.237-.607 2.43.33.056 1.6.25 2.786.415 1.214.166 2.345.442 2.538.608.193.166.47.22.607.138.138-.083.193 1.05.138 2.597-.165 3.26-.11 3.314 2.345 2.624 1.849-.525 2.87-.442 1.655.138-.413.193-.69.47-.606.58.082.138-.028.193-.221.11-.497-.193-2.29.802-2.29 1.271 0 .277.276.36.966.304 1.02-.11 2.207-.718 2.207-1.16 0-.138.33-.58.717-.967 1.352-1.353.083-1.547-3.642-.525-.772.194-.938-.47-.634-2.403.138-.829.193-1.768.11-2.127-.22-.912-2.014-1.63-4.607-1.85-2.014-.194-2.124-.25-2.097-.83.028-.359.193-.58.386-.497.36.138 2.042-1.685 2.042-2.21-.028-1.05-1.297-1.574-3.862-1.574-1.049 0-1.987-.11-2.07-.277-.082-.138.028-.552.249-.884.248-.331.441-.966.441-1.353 0-1.077-1.352-1.464-4.276-1.27l-2.262.165-.441-1.63c-.828-2.9-1.987-3.398-13.298-5.552-1.352-.249-4.055-.332-9.104-.304-7.256.083-8.194-.083-4.828-.801 3.035-.663 4.663-.746 10.76-.69 5.6.082 6.483.165 8.91.773zm-6.648 5.911c1.6.553 3.034 1.74 2.924 2.431-.138.884-1.241 1.27-3.697 1.27-4.055 0-10.87-.856-10.87-1.353 0-.138.194-.387.414-.58.221-.193.331-.47.221-.635-.083-.138-.028-.194.138-.083.166.083.745-.138 1.297-.497.551-.387 1.572-.774 2.29-.857.717-.11 1.49-.22 1.71-.276.772-.193 4.497.193 5.573.58zm97.91 13.84c.772 3.674 1.075 6.16 2.593 20.386.386 3.647.745 6.99.827 7.459.387 2.817 1.27 17.43 1.104 18.287-.055.276-.11 1.077-.11 1.795-.028 1.243-.083 1.326-1.214 2.017-.662.387-1.352.69-1.518.69-.248 0-.33-2.762-.33-10.718-.028-16.325-.47-19.585-2.042-14.778-.276.8-.58 1.519-.662 1.574-.11.055-.083-5.248.082-11.795.138-6.575.249-13.536.221-15.47-.027-1.961.028-3.48.11-3.397.083.082.525 1.85.939 3.95zm-107.456-2.431c.166.027.47.746.662 1.602.166.884.497 2.017.718 2.514.469 1.188.469 1.243-.028 1.326-.22.027-.359-.028-.303-.138.082-.11-.525-.857-1.325-1.658-.827-.828-1.71-1.961-1.958-2.541-.276-.58-.607-.995-.718-.912-.138.083-.165-.027-.082-.248.11-.304.441-.332 1.434-.166.717.11 1.435.22 1.6.22zm3.31.442c.497.11.608.387.773 1.823.083.94.359 2.1.58 2.541.551 1.133.303 1.271-.635.387-.441-.414-.883-.663-1.02-.552-.111.138-.139.055-.028-.138.138-.221.055-.58-.193-.83-.525-.607-1.187-1.933-1.38-2.844-.193-.774-.11-.774 1.904-.387zm106.684 7.596c2.18 8.15 2.869 12.348 3.227 19.724.138 3.039.47 7.735.718 10.387.248 2.817.358 6.215.303 8.149-.165 3.674-.193 4.033-.496 3.867-.083-.083-.331.055-.525.276-.551.663-.717.498-.607-.635.166-1.298-.44-18.702-.8-23.26-.138-1.906-.882-7.182-1.627-11.74s-1.435-8.922-1.545-9.668c-.304-2.348.276-1.077 1.352 2.9zm-106.545.11c.441.029.883.167 1.02.277.11.11.028.166-.193.11-.496-.11-.882 1.492-.579 2.514.414 1.492 1.407 3.04 2.538 4.034.662.552.938.911.635.8-.745-.276-2.704-1.602-3.145-2.154-.193-.249-.497-.36-.662-.249-.138.083-.194.028-.083-.138.083-.165.055-.386-.11-.47-.166-.11-1.021-1.27-1.932-2.624-.91-1.353-1.765-2.513-1.93-2.624-.139-.083-.387-.387-.525-.663-.248-.414.027-.387 1.959.304 1.214.442 2.593.829 3.007.884zm5.986.995c1.987.442 4.442 1.188 5.435 1.63l1.793.829-.524.856c-.276.47-.772 1.05-1.103 1.271-.331.249-.524.525-.47.635.083.083-.082.194-.33.221-.249.028-1.021.249-1.71.498-1.96.745-3.532.442-5.353-.94-1.738-1.353-2.4-2.68-2.317-4.723.055-1.133.138-1.354.524-1.243.248.082 2.069.524 4.055.966zm10.456 4.227c.166 0 .304.083.304.166-.028.082.634.856 1.462 1.685 1.462 1.491 4.662 5.856 4.662 6.38 0 .498-2.841-.054-5.242-1.021-1.296-.497-3.448-1.188-4.827-1.492-2.594-.58-7.587-2.155-7.587-2.376 0-.082.745-.055 1.655.056 2.842.303 4.525-.636 6.18-3.536l.745-1.326 1.158.746c.635.386 1.297.718 1.49.718zm85.606 11.27c-.028 6.74-.055 7.072-.828 10.166-.883 3.564-1.82 7.707-2.014 9.06-.083.47-.276 1.078-.469 1.382-.276.414-.303.36-.165-.387.082-.497.413-3.232.717-6.077.331-2.873.938-8.066 1.38-11.547.44-3.508.882-7.127.965-8.094.11-.967.248-1.685.331-1.63.055.083.11 3.288.083 7.127zm-30.347-2.955c.69.22 1.931.663 2.759.994.827.36 2.952 1.16 4.69 1.796 1.738.635 4.69 1.768 6.566 2.458 1.876.718 3.53 1.188 3.724 1.105.193-.11.248-.11.138.028-.138.138.138.442.607.718 1.324.829 1.683 1.85 1.572 4.613-.055 1.685-.138 2.21-.303 1.768-.607-1.685-1.49-2.983-2.317-3.425-.525-.276-1.242-.884-1.628-1.354-.883-1.05-1.82-1.491-6.345-3.01-3.035-1.023-3.67-1.354-3.807-1.852-.194-.828-1.16-1.077-3.725-.994-1.986.083-3.862-.276-3.862-.718 0-.11.248-.442.552-.718.303-.277.551-.691.551-.912 0-.414-.965-.387-3.641.11-.552.083-1.325.11-1.71 0-.746-.193-.966-.828-.36-1.105.58-.276 5.215.083 6.539.498zm-7.035 2.762c.717.47 2.704.912 5.931 1.27 3.532.415 5.932 1.023 6.897 1.796.221.194.8.415 1.242.525.469.11 1.628.553 2.62.995.994.442 2.787 1.188 4.001 1.657 3.752 1.464 4.387 1.934 5.27 4.033.882 2.072.855 2.155-.718 6.547-1.048 2.873-3.67 7.1-4.414 7.1-2.097 0-7.338-1.796-8.607-2.956-.249-.221-.607-.332-.8-.194-.221.11-.276.083-.138-.138.33-.497-3.56-4.171-5.49-5.193-2.511-1.298-4.304-1.74-7.284-1.74-2.317 0-3.752-.277-3.338-.636.193-.138 3.67-.746 5.38-.939 1.13-.11 1.986.055 4.497.884 1.71.58 3.614 1.381 4.22 1.796 1.518 1.022 4.663 3.895 4.663 4.281 0 .442 1.517 1.851 1.738 1.63.441-.442-3.78-4.917-5.987-6.326-1.627-1.05-5.572-2.458-7.67-2.762-1.268-.194-6.206.47-7.117.967-.22.11-.386.414-.33.663.054.303-.111.442-.58.442-1.02 0-2.428.58-2.207.911.083.166.027.194-.138.083-.193-.11-.883.055-1.573.36-.855.386-1.241.441-1.241.22 0-.552 2.51-2.845 3.78-3.48 1.655-.83 2.124-1.63 1.93-3.426-.082-.773-.22-1.74-.303-2.127-.303-1.215.138-2.983.883-3.73.717-.717 3.835-2.9 4.166-2.9.11 0 .414.166.717.387zm48.555 1.188c.083.884.276 1.85.386 2.155.359 1.022.138 10.911-.33 13.95-.718 4.53-.773 4.779-.994 4.53-.11-.138-.11-3.674.027-7.845.11-4.171.221-9.116.249-10.995.027-3.535.358-4.475.662-1.795zm-8.552 4.005c.22 3.509.055 20.497-.166 19.558-.469-1.795-1.103-6.74-1.517-11.795l-.442-5.58.745-2.486c.442-1.382.883-2.514.993-2.514.11 0 .276 1.27.387 2.817zm-5.021-1.38c-.166.193-.497 1.795-.745 3.535-.442 2.983-2.345 12.762-3.863 19.89-.358 1.74-.744 3.618-.827 4.17-.138.802-.442 1.188-1.683 2.045-1.628 1.105-2.676 2.293-3.724 4.171-.91 1.657-.525 2.127.413.497.414-.746 1.076-1.74 1.407-2.21.69-.911 3.283-2.9 3.118-2.375-.304.911-3.835 5.497-5.187 6.74-.855.773-1.517 1.547-1.462 1.685.028.138-.386.912-.938 1.713-.552.828-.91 1.602-.828 1.768.11.193 1.187.303 2.676.303 1.876 0 2.483.083 2.4.332-.082.193-.717.442-1.434.552-.717.083-3.31.746-5.793 1.437-2.483.69-4.58 1.27-4.663 1.27-.083 0 .166-.773.552-1.74.69-1.602.717-1.989.745-6.547.027-4.198.083-4.972.552-5.884.303-.552.634-1.022.744-1.022.11 0 .276-.47.387-1.022.11-.552.496-1.63.855-2.348.386-.746.607-1.464.524-1.602-.11-.166.138-.166.58 0 .413.166 1.296.221 1.93.11l1.187-.165-.773 2.016c-1.462 3.812-2.262 6.575-2.924 9.807-.634 3.232-.634 3.978-.027 3.978.855 0 4.358-2.514 4-2.873-.11-.11-2.952 1.657-3.752 2.32-.47.387-.47.553.358-3.342.663-3.205 1.6-6.326 3.035-10.166.359-.94.58-1.85.497-1.989-.083-.138-.055-.248.082-.22.718.11.966-.056.828-.609-.11-.359.276-1.712.938-3.342.607-1.52.993-2.9.91-3.066-.11-.194-.082-.249.028-.11.138.11.993-1.382 1.959-3.316.938-1.961 2.317-4.64 3.09-5.994.772-1.354 1.324-2.597 1.241-2.735-.083-.166-.055-.193.11-.11.276.165 2.566-4.31 2.566-4.973 0-.193.22-.47.497-.607.634-.387.717-.36.414.027zm2.676 7.32c0 2.044.717 8.453 1.241 11.132.607 3.122.773 5.58.442 6.409-.221.608-.497.773-1.6.939-1.518.221-4.939 1.354-5.49 1.796-.304.248-.304.138-.083-.636 1.02-3.287 1.82-6.38 3.062-12.1.772-3.563 1.545-7.07 1.683-7.817.165-.718.414-1.298.524-1.298.11 0 .22.718.22 1.575zm-3.31 1.491c-.166 1.271-.47 4.061-.718 6.188-.22 2.127-.607 4.696-.828 5.718-.496 2.403-2.124 6.658-2.593 6.796-.248.083-.304-.028-.166-.387.276-.69 2.704-12.32 3.449-16.685.662-3.73.8-4.282.993-4.088.083.055 0 1.16-.138 2.458zm-35.176 2.707c1.049.304 2.042.47 2.18.387.138-.083.165-.027.055.138-.22.387.828.995 1.27.718.165-.11.22-.082.137.083-.083.138.193.58.635.995.855.829.882 1.436.11 2.652-1.076 1.63-2.649 2.265-4.11 1.657l-.828-.331 1.186-.221c1.931-.36 4.497-2.32 4.028-3.067-.083-.138-.359 0-.58.332-.607.856-2.814 2.21-3.586 2.21-.359 0-1.104-.194-1.628-.415-.69-.276-1.13-.331-1.49-.138-.358.194-.579.194-.717-.055-.11-.193-.083-.22.11-.11.8.497.221-.11-.717-.774-1.13-.773-1.572-.911-1.269-.387.138.249.055.249-.248-.027-.497-.387-.635-.718-.22-.442.165.083.22-.249.11-.801-.083-.525-.056-1.41.027-1.934l.193-.994h1.71c.939 0 2.594.248 3.642.524zm6.4 1.962c0 .083 1.215 1.38 2.732 2.9 1.655 1.63 3.228 3.508 3.89 4.613.607 1.05 1.186 1.796 1.297 1.686.11-.111.11-.028.027.22-.083.221.166.83.552 1.354.386.525.69 1.022.69 1.133 0 .248-2.235-.249-2.649-.608-.165-.138-1.159-.36-2.207-.497-1.352-.166-2.593-.58-4.193-1.381-1.27-.636-2.428-1.078-2.594-.967-.165.11-.22.083-.137-.083.11-.166-.11-.497-.497-.746-.883-.58-1.131-.553-.662.028.358.442.33.47-.083.138-.276-.221-.441-.47-.414-.58.028-.11-.303-.525-.772-.94l-.828-.718.773-.027c2.538-.028 4.69-2.818 3.917-5.139-.165-.524-.083-.607.497-.552.386 0 .69.083.662.166zm7.256 5.386c.442.553.938.525.718-.027-.083-.249-.055-.332.138-.249.165.11.22.36.138.58-.276.746 2.483 1.934 5.02 2.127 1.435.11 1.6.249 1.16.995-.194.359-.497.359-1.932.083-.938-.166-2.18-.553-2.759-.857-.579-.304-1.269-.497-1.545-.47-.551.111-1.49-.552-1.49-1.021 0-.166.194-.056.415.248.22.276.413.415.413.276 0-.138.221-.055.497.139.248.193.165 0-.248-.442-1.16-1.382-1.435-1.796-1.131-1.796.137 0 .413.193.606.414zm34.292 5.58c.11 2.57.387 4.2 1.27 7.68.744 2.9 1.213 5.331 1.324 7.072.138 2.458.11 2.762-.442 3.674-1.572 2.513-4.055.884-6.262-4.172-.635-1.436-.662-1.519-.193-2.154.275-.36.634-.69.772-.69.359 0 1.683-4.227 2.207-7.045.22-1.16.497-3.342.607-4.862.083-1.491.248-2.735.359-2.735.11 0 .276 1.465.358 3.232zm-1.296 0c-.221 2.901-1.021 7.266-1.325 7.266-.11 0-.22-1.768-.22-3.923 0-3.867 0-3.923.745-4.696.413-.414.8-.774.855-.774.083 0 .055.967-.055 2.127zm-2.125 4.862c-.138 4.973-.193 5.415-.772 6.216-.331.497-.745.884-.883.884-.165 0-.22-.083-.165-.221.082-.11-.028-1.078-.249-2.127-.193-1.078-.441-3.288-.551-4.917-.11-1.851-.332-3.15-.552-3.37-.304-.277-.248-.36.303-.36.47 0 3.035-1.215 3.035-1.436 0 0-.083 2.403-.166 5.331zm-4.8-2.32c-.662 1.906-1.214 2.762-3.09 4.724-1.71 1.85-4.828 4.42-5.324 4.42-1.076 0-1.573-3.37-.662-4.641.33-.498.358-.719.11-1.023-.276-.331-.248-.552.138-1.132.248-.387.524-.635.607-.553.083.083-.055.47-.304.83-.248.413-.33.745-.165.855.138.083.524-.386.855-1.05.58-1.16.662-1.242 3.255-2.099 1.463-.47 3.146-.966 3.752-1.105.607-.138 1.132-.248 1.16-.276.027-.027-.111.442-.332 1.05zm1.517.746c0 2.044.69 7.21 1.132 8.342.248.636.193.829-.36 1.27-.358.277-.606.636-.55.774.027.138-.056.194-.194.11-.138-.082-1.186.388-2.345 1.078-3.862 2.293-4.249 2.431-7.173 2.652-2.069.166-3.172.11-4.414-.166-.938-.22-2.455-.414-3.393-.414-.966 0-1.738-.11-1.738-.221 0-.497 3.669-4.779 5.572-6.436l2.014-1.824.028 1.52c.055 3.508 2.483 2.734 7.228-2.265 2.014-2.155 2.649-3.177 3.476-5.774.331-1.077.717-.387.717 1.354zm2.373 11.768c1.241 2.624 2.262 4.143 2.676 3.922.166-.11.248-.083.138.028-.138.138.248.525.828.884 1.103.718.882.69-1.6-.083-.69-.221-2.29-.718-3.587-1.133-1.297-.386-3.393-.8-4.69-.911-1.628-.138-2.152-.249-1.738-.415.359-.11.552-.331.441-.497-.082-.138-.027-.193.11-.11.304.193 2.125-.746 4.912-2.514.772-.47 1.462-.884 1.544-.884.083 0 .525.773.966 1.713zm-87.482.331c.497.221 1.021.304 1.132.221.11-.11.138-.055.055.083-.11.166.303.635.91 1.077 1.738 1.326 1.517 1.381-2.676.69-2.069-.358-2.455-.58-2.18-1.242.139-.304.194-.636.166-.746-.027-.138.055-.166.166-.11.138.055.469.027.772-.111.304-.11.58-.221.635-.221.027-.028.496.138 1.02.359zm81.66 2.9c2.594.387 5.656 1.382 5.656 1.824 0 .22.166.414.36.414.44 0 2.04 6.215 2.427 9.392.138 1.299.469 3.453.69 4.807.772 4.503-.194 9.917-2.676 14.89-1.849 3.673-3.256 5.717-5.463 7.927-.965.995-1.793 1.906-1.793 2.044-.028.139-.22.277-.47.304-.247.056-.91.387-1.516.746-1.545.967-4.663 2.21-8.939 3.536-3.752 1.188-7.062 2.762-6.704 3.177.138.11.083.138-.083.055-.386-.221-4.58 2.403-4.303 2.707.11.138.055.138-.138.028-.414-.221-5.408 2.707-5.132 3.01.138.111.083.139-.11.028-.69-.386-8.276 4.255-7.89 4.862.083.166.027.221-.138.11-.304-.193-1.931 1.686-2.621 3.012-.745 1.547-3.42 10.8-4.166 14.502-.248 1.133-.552 3.26-.717 4.696-.166 1.437-.414 3.37-.552 4.282-.138.912-.386 4.392-.552 7.735-.137 3.342-.33 6.436-.413 6.906-.607 3.453-1.463 5.856-2.621 7.32-.442.58-.718 1.133-.607 1.243.11.138.055.138-.11.056-.166-.11-.525.055-.8.359-.47.525-1.242.828-3.339 1.353-.634.166-.855.138-.91-.138-.193-1.022-.11-3.039.22-6.022.442-3.923.276-6.63-.579-9.033-.607-1.657-.69-1.768-1.545-1.85-1.13-.111-2.814.91-3.531 2.154-.276.442-.607.829-.717.829-.414 0-.138-7.238.496-13.232.138-1.437.11-1.74-.193-1.63-.303.11-.358-.193-.303-1.63.055-.994-.083-2.624-.331-3.619-.524-2.403-.8-5.055-.58-6.187.11-.498.607-1.41 1.159-2.017 1.49-1.685 4.249-4.558 4.387-4.558.082 0-.056.332-.276.746-.635 1.243-1.076 3.15-1.049 4.64 0 1.05.138 1.465.607 1.852.331.276.828.497 1.076.47.828-.028 2.373-.719 2.318-1.023-.056-.166.082-.249.303-.166.607.249 2.566-2.237 2.897-3.701.496-2.017-.359-4.2-1.849-4.807l-.744-.276.965-.442c1.297-.58 4.11-.746 5.38-.332 1.958.636 4 2.984 4 4.558 0 .415.11.663.276.553.8-.497-.22-2.845-1.904-4.365-1.352-1.215-2.924-1.685-5.269-1.491-2.07.138-4.221.911-3.945 1.408.083.166.083.221-.055.11-.276-.275-1.297.277-1.104.609.083.138.552.165 1.049.083 1.903-.304 3.31 1.96 2.676 4.309-.58 2.127-4 4.89-5.408 4.337-1.158-.442-.965-3.508.442-6.27.441-.885.717-1.658.607-1.769-.11-.11-.055-.138.082-.083.166.028.304-.027.36-.193.054-.138-.056-.304-.222-.36-.165-.054-1.572 1.133-3.117 2.68-1.517 1.52-2.814 2.735-2.842 2.708-.055-.028.166-.83.442-1.713.303-.912.717-2.32.965-3.122.387-1.353 2.235-4.779 6.76-12.624 2.344-4.06 4.027-7.569 5.076-10.47.634-1.822 1.6-3.618 3.172-5.994 2.07-3.149 2.428-3.895 1.71-3.453-.358.249-3.668 5.249-4.386 6.658-.303.607-.883 2.044-1.269 3.176-.772 2.127-3.283 7.293-4.497 9.227-.634.967-3.42 5.939-5.82 10.359-.525.967-1.435 3.425-2.015 5.47-1.048 3.673-1.103 3.756-3.117 6.242-1.131 1.382-1.986 2.625-1.904 2.763.083.166.028.193-.138.11-.358-.248-2.041 1.99-1.793 2.376.083.166.028.193-.138.083-.58-.36-5.242 8.59-4.855 9.31.11.193.11.248.027.165-.11-.083-.855.497-1.655 1.27-3.338 3.26-6.345 2.818-7.145-1.05-.69-3.231.469-7.596 2.952-11.27.827-1.16 1.38-2.21 1.296-2.32-.11-.11-.055-.138.138-.083.276.083 4.194-4.06 9.877-10.414 2.814-3.15 4.993-5.94 4.883-6.27-.028-.139.055-.194.193-.084.276.166 1.02-.939.91-1.326-.027-.138.056-.165.193-.083.414.277 2.428-3.121 4.277-7.21 2.73-6.021 4.165-8.646 6.566-12.016 1.241-1.713 2.234-3.26 2.234-3.453 0-.193.083-.304.193-.276.083.027.745-.525 1.462-1.243.718-.718 2.428-1.99 3.78-2.873 1.38-.856 2.4-1.685 2.29-1.85-.083-.167-.028-.194.165-.084.58.36 6.815-5.165 6.456-5.718-.083-.166-.028-.193.11-.11.497.303 4.249-4.006 5.27-6.022.69-1.41 1.158-3.84 1.158-6.188 0-1.74.055-1.879 1.187-3.15 1.158-1.298 1.186-1.325 5.931-2.679 6.125-1.768 8.994-2.293 11.173-2.1.938.111 2.152.056 2.676-.082 1.27-.332 3.062-.36 5.104-.055zm22.54 14.365c.387.94.359 6.823-.027 9.282-.635 3.757-1.518 7.596-1.71 7.403-.083-.138-.083-2.155.054-4.503.11-2.348.221-6.298.249-8.729.055-4.31.055-4.447.607-4.31.303.056.662.443.827.857zm-117.994 5.718c.47.304 1.71 1.022 2.76 1.602 1.075.58 2.565 1.63 3.31 2.376 1.655 1.602 2.483 1.878 6.704 2.21 2.98.221 3.255.304 4.993 1.354 2.124 1.27 5.96 2.375 7.311 2.127.662-.139.497.027-.8.773a89.242 89.242 0 0 0-3.973 2.348c-3.338 2.044-5.241 2.57-9.159 2.597-3.807 0-4.083-.083-7.587-3.067-2.18-1.878-3.393-3.535-3.42-4.696 0-.442.993-1.436 1.462-1.436.193 0 .634.663 1.02 1.436 1.38 2.956 3.587 4.614 6.07 4.641 3.448 0 3.283-2.873-.249-4.779-1.765-.967-4.303-1.85-5.297-1.85-.662 0-.965-.277-1.793-1.52-.551-.829-1.13-1.436-1.296-1.326-.166.11-.193.028-.056-.166.221-.414-2.455-3.287-3.917-4.198-.497-.332-.91-.663-.91-.774 0-.276 3.614 1.492 4.827 2.348zm4.746 6.602c4.993 1.603 7.531 4.254 4.717 4.945-2.207.552-4.69-1.022-6.262-3.95-.497-.94-.828-1.685-.745-1.685.083 0 1.103.304 2.29.69zm-2.952 20.69c1.351.332 1.517.443 1.434 1.023-.138 1.215-1.82 3.646-4.359 6.298l-2.538 2.597-1.407-.166c-3.945-.47-6.62-3.315-5.848-6.188.165-.552.193-1.132.11-1.298-.083-.166-.055-.221.055-.083.138.11.58-.138 1.02-.552 1.298-1.244 4.056-2.017 7.257-1.99 1.517 0 3.448.166 4.276.36zm107.565 25.58c.524 2.21.966 5.553 2.263 17.266.717 6.602 1.048 19.64.496 19.42-.22-.084-.69-.25-1.076-.36-.607-.193-.634-.166-.33.221.22.249.634.47.965.525.579.083.607.22.551 2.32-.027 1.824-.606 7.155-1.324 12.127-.055.47-.303 3.067-.524 5.801-.69 8.122-1.71 15.332-2.18 15.332-.44 0-.027-11.022.635-16.713.304-2.735.58-6.713.607-8.84.055-5.47-.8-30.193-1.462-42.54-.193-3.343-.248-6.575-.138-7.183.22-1.105.22-1.105.58-.414.192.387.606 1.74.937 3.039zm-44.361 56.409c-.69 10.635-.193 12.928 2.731 12.928 1.738 0 2.952-.525 5.987-2.652 2.869-2.017 4.993-3.15 5.848-3.15.304 0 .718.277.883.608.497.912.635 5.221.276 8.509-.276 2.652-.414 3.149-1.738 5.8-.8 1.603-1.407 3.012-1.38 3.122.028.138-.027.166-.165.083-.276-.166-2.042 2.155-1.82 2.376.054.083-.111.304-.36.525-.44.359-.468.331-.11-.11.745-.94-.386-.498-3.586 1.436-1.738 1.05-4.663 2.651-6.456 3.563-3.78 1.878-14.677 6.133-19.587 7.652-3.338.994-7.422 1.768-7.753 1.464-.22-.249 1.352-1.63 4.056-3.564 1.186-.856 2.069-1.657 1.959-1.767-.11-.111-.056-.139.11-.083.193.027 1.02-.332 1.876-.857 1.159-.69 1.49-1.022 1.214-1.215-.248-.166-.22-.194.138-.083.552.166 2.676-.801 2.676-1.215 0-.442-.331-.332-2.51.662-2.925 1.354-6.677 2.542-9.105 2.901-4.028.635-7.724-.608-10.676-3.508-.856-.857-1.628-1.547-1.71-1.52-.084.028-.166-.303-.194-.718-.055-.746 0-.773 2.18-1.215 2.4-.47 7.2-2.57 6.924-3.039-.083-.166-.027-.193.166-.083.414.249 5.793-3.066 9.407-5.828 3.062-2.32 5.435-4.53 7.394-6.851 2.593-3.122 8-12.017 7.614-12.597-.11-.193-.083-.248.083-.165.414.248 2.676-4.807 4.138-9.2.69-2.043 1.324-3.867 1.435-4.005.303-.497.33 7.072.055 11.796zm43.782 30.883c.634 4.2.607 8.923-.028 10.138-.524.995-1.434 1.354-2.62 1.078a12.88 12.88 0 0 0-1.104-.249c-.193-.055-.359-.193-.359-.359-.027-.138-.469-.856-.993-1.575-.552-.718-.938-1.353-.883-1.38.056-.056.442-.305.856-.553.413-.277.965-.857 1.186-1.299.441-.856 2.62-11.408 2.62-12.707 0-.386.083-.828.221-.939.11-.11.276.884.414 2.238.11 1.326.414 3.867.69 5.607zm-81.909-199.528c-.027.11-.027.304 0 .415 0 .138-.083.193-.22.138-.11-.028-1.104.939-2.152 2.154-2.152 2.487-2.897 2.873-6.015 3.094l-1.93.138-2.153-1.823c-1.186-.994-2.317-1.823-2.538-1.823-.469 0-1.241 1.381-1.241 2.182 0 .304-.138.636-.276.719-.166.11-.193.331-.083.497.138.248.083.248-.22.027-.47-.386-3.532-.663-3.725-.359-.11.221 1.214.442 3.31.58l1.104.083.414-1.436c.248-.774.524-1.52.635-1.602.11-.11 1.13.635 2.317 1.657l2.124 1.878 2.097-.165c3.173-.194 4.248-.636 5.766-2.238.717-.773 1.572-1.795 1.903-2.237.938-1.271.745-.221-.276 1.657-.772 1.409-1.379 2.017-3.917 3.923-1.655 1.243-3.062 2.403-3.145 2.596-.166.525.469.719 2.704.774 2.4.055 3.393-.221 4.524-1.299 1.159-1.104 1.545-2.016 2.124-5.055.304-1.519.607-2.873.69-3.01.083-.166.055-.277-.11-.277-.331 0-.745 1.27-1.131 3.536-.414 2.32-.718 3.066-1.6 4.005-1.187 1.271-2.042 1.575-4.332 1.575-1.131 0-2.069-.083-2.069-.221 0-.11.91-.801 1.986-1.575 2.704-1.823 4.139-3.176 3.973-3.646-.083-.221-.028-.304.11-.221.331.193 1.545-2.182 1.794-3.508.11-.608.082-1.05-.11-1.16-.166-.11-.332-.11-.332.027zm27.809 18.425c.717.94 3.89 3.343 4.359 3.315.22-.027.33.056.248.194-.22.386 3.862 2.9 6.235 3.812 2.29.911 4.745 1.326 5.904 1.022 1.241-.304.772-.635-.773-.497-2.483.193-6.759-1.437-9.959-3.785-3.504-2.597-4.635-3.48-5.186-4.06-.828-.885-1.49-.885-.828 0zm-25.436 11.658c-.304.083-1.27.248-2.152.442-1.407.276-2.097.607-1.793.911.027.056 1.876.304 4.083.553 2.207.248 4.607.635 5.324.884 1.876.58 2.18.138.773-1.078-1.683-1.436-4.166-2.127-6.235-1.712zm31.45-139.253c.166.055.966.276 1.793.525.856.221 2.318.94 3.283 1.547.938.608 1.876 1.022 2.042.94.193-.111.248-.084.11.027-.11.138.331.8.993 1.491 1.435 1.492 1.738 2.045 3.2 5.553 1.628 3.978 1.683 5.911.414 14.862-.496 3.508-.8 7.983-.551 7.734.193-.165.524-2.541 1.407-10.165.22-1.906.469-3.895.551-4.448.304-1.823-.33-6.105-1.186-8.01-.441-.968-1.048-2.321-1.324-3.012-1.324-3.204-6.925-7.237-9.987-7.154-.552 0-.883.055-.745.11zm-22.208 183.893c-2.842 1.961-4.138 3.205-5.49 5.193-1.38 2.017-3.173 5.387-4.304 7.956-3.642 8.508-5.352 11.188-12.966 20.58-6.566 8.121-8.194 10.801-10.042 16.492-.883 2.79-2.676 10.662-3.504 15.469-.47 2.707-.635 3.094-2.262 5.801-2.732 4.475-5.711 8.867-8.58 12.68-3.559 4.75-4.331 5.994-8.828 14.226-2.152 3.922-4.304 7.707-4.745 8.37-1.573 2.293-8.746 6.326-12.25 6.906-1.158.193-1.572.635-.579.635.773 0 5.021-1.436 6.566-2.237 1.766-.912 4.497-2.763 4.442-3.011-.055-.138.082-.194.303-.11.662.248 2.18-1.934 5.242-7.542 5.324-9.696 6.787-12.182 8.387-14.227 3.255-4.226 7.366-10.165 9.27-13.397 1.075-1.851 2.04-3.37 2.151-3.398.386 0-.138 2.652-1.186 5.856-.58 1.796-1.324 4.53-1.628 6.078-.303 1.574-.662 3.204-.8 3.674-1.435 4.806-2.814 8.397-4.497 11.74-1.986 3.922-2.455 5.22-6.455 17.68-2.29 7.181-2.207 9.474.469 10.828.524.276 1.49.497 2.151.497 1.987 0 3.008-1.354 5.656-7.32 1.186-2.68 2.566-6.16 3.09-7.707.965-2.873 3.67-8.509 3.973-8.315.11.055.137.47.055.911-.055.498.055.912.358 1.16.414.332.635.304 1.71-.276 2.732-1.464 3.698-2.68 5.877-7.375 1.104-2.404 2.483-5.608 3.062-7.127.607-1.52 1.628-4.061 2.318-5.663 1.793-4.282 5.131-12.9 6.483-16.796.717-2.071 1.931-4.696 3.09-6.767 2.51-4.393 4.166-7.708 5.214-10.36.469-1.16 1.159-2.679 1.545-3.37.58-1.05 2.566-5.663 2.566-5.966 0-.387-.552 0-.69.497-.193.608-2.456 5.552-5.573 12.1-.828 1.74-2.373 4.668-3.42 6.49-1.353 2.376-2.456 4.835-3.808 8.564-3.89 10.69-9.38 24.226-11.835 29.144-1.766 3.563-1.931 3.784-3.752 5.193-1.049.801-2.042 1.409-2.207 1.353-.552-.193-.497-1.353.22-4.17 2.014-8.012 1.904-13.868-.303-14.2-.662-.11-3.007 1.658-2.897 2.128.028.193-.055.276-.193.193-.138-.11-1.048.718-2.041 1.795l-1.794 1.962.938-2.707c1.076-3.177 1.683-5.442 2.014-7.57.387-2.43 1.131-4.695 1.545-4.695.442 0 .552-.442 1.104-4.669 1.048-7.817 3.007-17.735 4.441-22.403 1.545-5.028 4-9.282 8.415-14.53 3.172-3.785 8.387-10.635 9.821-12.956.47-.773 1.766-3.26 2.842-5.525 6.124-12.817 6.87-13.922 11.035-16.795 2.62-1.796 3.2-2.293 2.841-2.459-.11-.082-1.269.608-2.565 1.492zM285.7 313.233c-.082.11.166.497.525.856 1.13 1.078 1.627 2.763 1.406 4.917-.358 3.37-.965 5.36-3.062 9.475-1.13 2.238-2.483 5.332-3.034 6.906-.525 1.575-1.932 5.056-3.118 7.708-2.483 5.635-3.448 6.906-5.186 6.906-1.435 0-2.814-.884-3.339-2.155-.607-1.464-.33-3.204 1.463-8.73.827-2.596 2.069-6.436 2.73-8.535 1.187-3.646 3.863-9.862 4.277-9.862.193 0 2.207-3.121 2.207-3.453 0-.083-.166-.083-.331.028-.22.11-.276.083-.138-.056.138-.138.331-.248.414-.276.11 0 1.02-.828 2.041-1.85 1.021-.995 2.152-1.879 2.483-1.934.359-.055.662-.138.718-.166.055 0 .027.083-.056.221zm72.888-68.977c-2.18 2.79-5.132 6.602-6.566 8.508-1.407 1.906-3.366 4.42-4.359 5.608-1.683 2.016-6.676 6.823-8.47 8.121-.551.415-.744.69-.551.884.193.194 1.269-.608 3.31-2.43 4.276-3.813 5.739-5.443 10.953-12.321 2.51-3.343 5.655-7.43 6.952-9.088 2.455-3.094 3.062-3.978 2.841-4.2-.055-.082-1.903 2.155-4.11 4.918zm11.532-3.536c-.166.332-.028 1.796.358 4.005.69 4.116 1.27 9.752 1.683 16.879.166 2.817.58 7.845.966 11.187.579 5.249.91 9.144.965 10.995 0 .276.11.414.276.331.359-.22.138-3.674-.717-11.326-.359-3.342-.828-9.005-1.076-12.568-.47-7.68-.8-10.995-1.517-14.917-.304-1.603-.58-3.398-.607-4.006-.083-.884-.166-.994-.331-.58zm-228.18 12.845c-.166.304-3.835 2.9-7.725 5.47-4.028 2.68-9.739 5.884-10.456 5.884-.607 0-1.214.442-.938.69.276.276 2.62-.525 3.89-1.326a79.38 79.38 0 0 1 2.896-1.712c.773-.415 1.435-.857 1.435-.967 0-.11.166-.194.386-.194.359 0 9.187-5.884 10.704-7.154.414-.332.662-.69.58-.774-.249-.248-.58-.193-.773.083zm-37.327 18.867c-.607.608-.359 1.63.634 2.625.828.828 1.021.911 1.545.635.497-.276.58-.497.442-1.464-.221-1.685-1.71-2.707-2.621-1.796zm15.146 1.078c-.36.47-.91 1.022-1.242 1.215-1.103.718-5.793 1.99-7.973 2.155-1.6.138-2.759.442-4.773 1.27-1.462.608-3.09 1.188-3.641 1.299-.58.083-1.27.331-1.573.525-.414.248-2.455.386-6.952.47-3.531.055-6.483.193-6.593.303-.552.553.8.801 5.572 1.022 5.849.304 8.884.857 11.863 2.21 2.207.995 2.262 1.022 6.4 5.525 1.766 1.906 3.311 3.425 3.421 3.37.11-.027.194.028.166.138-.055.138.055.249.193.304.166.055.497.304.773.525.248.249.469.331.469.166 0-.415-2.097-3.619-3.366-5.11-1.38-1.658-4.635-4.144-5.187-3.923-.22.083-.303.055-.193-.056.11-.11-1.103-1.077-2.703-2.127-1.6-1.05-3.035-2.154-3.2-2.458-.249-.442-.221-.525.055-.36.634.415 2.179.443 2.179.084 0-.636 5.159-2.431 7.725-2.708 1.296-.138 3.53-.635 4.965-1.105 2.07-.69 2.842-1.104 3.67-1.933.965-1.022 1.296-1.685.827-1.63-.138 0-.524.387-.882.829zm-18.43 7.762c.36.36.884.801 1.187.995.469.303.414.331-.441.165-.525-.083-1.214-.193-1.518-.22-.303 0-.634-.111-.717-.222-.083-.138-1.131-.276-2.345-.359-1.186-.083-2.731-.248-3.42-.359l-1.242-.166 1.517-.193c.828-.083 2.593-.166 3.917-.193 2.152-.056 2.483 0 3.063.552zm160.618 3.812c-3.807 1.354-9.876 4.337-14.125 6.934-6.373 3.895-11.863 6.63-15.532 7.79-5.325 1.657-6.704 1.906-9.794 1.795-2.262-.083-2.952-.193-3.807-.718-.58-.331-1.186-.608-1.324-.608-.524 0 .055.553 1.214 1.188 1.048.553 1.545.608 4.883.58 3.724-.027 3.752-.027 8.276-1.491 4.938-1.575 9.132-3.62 15.532-7.514 4.69-2.873 10.898-5.967 14.898-7.431 1.765-.635 3.228-1.27 3.228-1.409 0-.331-.138-.304-3.449.884zm53.935 3.702c0 .8-.718 2.541-1.849 4.447a23.549 23.549 0 0 0-1.186 2.348c-.193.525-1.048 2.404-1.876 4.144-.828 1.74-1.49 3.177-1.435 3.177.387 0-3.503 3.757-5.655 5.47-2.814 2.21-5.104 4.253-5.104 4.474 0 .415.717 0 1.986-1.188.8-.718 2.456-2.071 3.697-3.01 4.028-3.067 5.518-5.056 7.946-10.636.69-1.602 1.903-4.116 2.648-5.58 1.269-2.458 1.766-4.31 1.103-4.31-.137 0-.275.305-.275.664zm-201.117 5c0 .11.359.663.773 1.215.965 1.243 1.682 2.928 2.814 6.658.469 1.602 2.041 6.546 3.476 10.994 3.034 9.364 3.586 11.547 5.103 19.944 1.297 7.045 1.6 10.608 1.076 11.879-.551 1.353-1.958 2.044-3.807 1.85-3.172-.276-13.104-4.53-17.573-7.513-2.76-1.823-3.863-3.122-4.69-5.608-.883-2.514-1.159-5-1.545-13.59-.386-8.343-.138-12.597 1.02-18.647.718-3.702 1.27-5.387 1.71-5.387.277 0 1.05 2.072 2.539 6.768.497 1.52 1.573 4.365 2.4 6.354 3.2 7.486 4 10.524 2.842 10.828-.607.166-.718.498-.276.774.469.304 1.076-.387 1.269-1.41.193-1.104-.552-3.728-2.152-7.568-2.345-5.635-3.228-8.011-4.359-11.63-.634-2.044-1.38-4.033-1.655-4.392-.497-.663-.524-.663-1.048-.193-1.021.911-2.318 7.099-2.842 13.563-.276 3.26-.276 5.525 0 10.773.717 14.033 1.297 16.133 5.518 19.254 3.117 2.32 11.724 6.354 16.58 7.735 1.931.553 4.138.69 4.138.249 0-.138.193-.194.414-.11.607.248 2.014-1.41 2.235-2.57.248-1.381-.028-4.53-.856-9.337-1.71-9.917-2.4-12.652-6.207-24.447-3.035-9.42-3.835-11.989-3.752-12.072.028-.055.745.746 1.573 1.74.827 1.023 2.207 2.735 3.09 3.813 1.793 2.182 5.02 7.43 6.29 10.276 1.324 2.928 1.876 5.967 2.179 12.265.248 4.917.469 6.464 1.545 11.878.69 3.426 1.738 7.763 2.345 9.669 1.297 4.17 1.903 7.044 1.903 8.867 0 .746.138 1.354.276 1.354.414 0 .331-2.459-.138-4.752a90.54 90.54 0 0 0-1.517-5.607c-.993-3.315-2.62-10.442-3.31-14.558-.166-.967-.414-4.116-.552-6.99-.386-7.734-.993-10.33-3.614-15.137-2.152-3.95-3.67-6.188-6.042-9.033-3.228-3.84-4.993-6.077-5.325-6.74-.193-.332-.413-.608-.496-.58-.11 0-.442-.25-.773-.525-.33-.304-.579-.442-.579-.304zm155.707 74.971c-1.214.746-1.766 1.63-1.766 2.873 0 2.182 1.545 4.337 3.118 4.337.827 0 2.676-1.022 2.676-1.464 0-.11-.414.083-.91.47-1.187.911-2.125.911-3.063.027-1.407-1.326-1.904-3.342-1.131-4.806.414-.801 1.876-1.685 2.841-1.685 1.463 0 3.09 2.652 2.483 4.005-.441.967-.883.718-.993-.497-.083-.801-.248-1.105-.855-1.437-.966-.47-1.573-.138-1.904 1.105-.303 1.05.11 2.625.662 2.625.221 0 .663-.442.994-.995.551-.911.607-.967.8-.442.33.884.717.94 1.324.166.717-.912.717-1.492.027-2.873-.993-1.934-2.593-2.458-4.303-1.409zm24.415 2.79c-.938.912-.993 1.63-.276 2.514.662.801 1.324.525 1.959-.801.552-1.16.828-1.105.828.193 0 .608.11 1.188.276 1.271.165.11.22-.138.137-.608-.055-.414-.193-1.215-.275-1.74-.11-.773-.304-1.05-.994-1.298-.8-.304-.938-.277-1.655.47zm7.063-.414c-.083.22-.193.608-.276.829-.166.58.165 4.558.386 4.558.11 0 .138-.525.083-1.133-.138-1.243.165-1.63 1.241-1.63.8 0 1.297-.911.91-1.657-.248-.47-1.6-1.381-2.068-1.381-.083 0-.221.193-.276.414zm6.207.608c0 .138-.469.276-1.02.248-1.27-.027-2.015.995-1.6 2.21.634 1.74 1.958 1.547 2.537-.331l.304-1.078.055.967c.027.525.055 1.05.027 1.16 0 .139.11.221.276.221.331 0 .055-3.01-.33-3.453-.166-.138-.249-.138-.249.056zm12.332.828c-.47.94-.359 2.017.276 2.487.551.442 1.103.055 1.627-1.16.414-.912.47-.636.387 1.298-.028.607.082 1.05.248 1.05.33 0 .359-2.183.055-3.288-.083-.359-.359-.69-.58-.746-.22-.055-.689-.165-1.02-.248-.469-.166-.69-.028-.993.607z"/></svg>