<svg version="1.0" xmlns="http://www.w3.org/2000/svg" width="400" height="400" fill="none" stroke="#000" viewBox="0 0 400 400"><path d="M177.6.88C159.04 3.2 142.8 7.2 127.52 13.2 67.44 36.64 21.52 88.24 6 149.76 1.76 166.4.64 175.28.24 195.6c-.48 21.12.48 31.36 4.24 48.32C17.12 300.56 55.6 350.56 107.2 377.44c40.64 21.2 88.16 27.76 133.6 18.56 69.52-14.16 127.04-65.12 149.52-132.4 8.08-24.32 10-38.4 9.52-68.96-.4-20.32-.64-23.12-2.64-32.64-6.88-32.8-20.32-62.08-39.44-86-33.44-41.76-79.84-67.92-132.4-74.8C215.2-.08 186.88-.32 177.6.88zM222 3.2c15.76 1.84 36.24 6.64 43.2 10.16 3.6 1.84 18.88 14.8 24.48 20.72 6.4 6.72 12.72 14.72 14.16 17.68 1.2 2.56 1.2 2.96.16 3.28-5.6 1.84-25.28 13.36-37.52 22-8.32 5.92-9.28 6.32-11.2 5.52C236.8 74.88 226.24 71.68 206 67.6c-7.44-1.52-18.24-3.28-24-4-5.68-.64-11.52-1.36-12.96-1.6-2.24-.4-3.6-2-11.36-13.44-4.88-7.12-11.36-15.84-14.4-19.36l-5.68-6.4 1.84-1.52c4.08-3.52 22.88-10.8 37.36-14.56 15.68-4 30.4-5.2 45.2-3.52zM170.4 6c-13.12 3.84-19.12 6.16-30.16 12-5.36 2.88-13.84 6.88-18.8 8.88-16.88 6.88-32.48 14.96-54.64 28.24l-3.2 1.92 2.4-2.56c3.92-4.24 16.32-14 25.68-20.08 22.4-14.56 48.72-24.88 75.12-29.52 12.88-2.24 14-1.92 3.6 1.12zm116.32 16c30.64 15.12 55.84 36.56 75.68 64.4 6.16 8.72 14.16 22.24 17.92 30.64 4.48 9.76 4.72 9.52-4.4 5.04-8.64-4.24-7.68-3.36-18.72-17.76-2.64-3.52-14.72-16.4-26.88-28.72-12.16-12.32-24.16-25.2-26.72-28.72-5.68-7.6-15.36-18-23.84-25.44-3.36-2.96-5.92-5.44-5.68-5.44.32 0 6 2.72 12.64 6zM57.68 68.88C50.16 84.48 45.44 100.4 44.24 114c-.48 5.76-.64 6.24-4.4 10.48-15.44 17.68-22.8 30.72-31.52 56-5.68 16.24-7.28 14.16-4.72-5.84 4.72-35.68 20-71.44 42.4-99.04 7.28-8.96 15.44-17.68 16-17.04.24.24-1.76 4.88-4.32 10.32zM184 66.48c23.68 3.12 45.2 8.24 61.12 14.56 10.32 4.08 10.8 4.56 14.64 14.96 10 27.52 21.44 58.48 22.64 61.6l1.44 3.68-8.32 10.32c-17.6 21.84-53.2 57.76-56.24 56.88-.72-.24-19.6-3.52-42.08-7.28-46.88-7.92-41.92-6-48.4-18.16-13.6-25.36-20.16-46.08-21.28-67.44l-.56-9.6 5.12-6.4c2.8-3.52 16.08-17.44 29.44-30.96 24.08-24.4 24.32-24.64 27.2-24.24 1.6.24 8.48 1.12 15.28 2.08zM54.4 123.2c5.04.72 20.4 1.76 40.48 2.88l9.68.48.48 8.96c1.2 22.48 8.96 46.56 22.72 70.8l4.72 8.4-4.32 6c-8.96 12.48-24.32 40.48-31.6 57.6l-2.24 5.12-14.56-.48c-28.56-1.04-41.76-6.16-51.12-20-6.88-10.16-13.52-28-18.32-49.52-3.6-16.24-3.52-21.84.32-32.88 6.88-19.68 14.24-33.44 25.84-48.32 8-10.24 8.32-10.4 17.92-9.04zm320.8 1.28c2.4 1.12 6.16 3.68 8.24 5.76 3.36 3.28 4.16 4.72 6.16 11.36 9.36 30 11.12 63.28 5.2 95.6-2.48 13.44-7.2 29.44-9.6 32.24-.08.08-3.04-1.44-6.48-3.44-3.44-2-6.72-3.6-7.2-3.6-2.08 0-2.8-2.96-3.92-16.88-2.32-27.84-5.12-44.72-9.76-57.92-1.52-4.4-2.8-8.72-2.88-9.6 0-.88 1.28-5.84 2.88-10.96 1.6-5.12 4.64-17.28 6.64-26.96 3.04-13.92 4.08-17.68 5.04-17.68.72 0 3.28.96 5.68 2.08zm-67.2 44.4c9.92 2.64 23.76 6 30.8 7.6 8.4 1.84 13.12 3.28 13.84 4.16 3.2 4.16 9.12 30.08 10.96 48.16 1.76 17.04 2.64 31.36 1.92 33.2-.56 1.76-19.12 26.8-26.64 36-6.72 8.24-18.32 19.84-23.36 23.28-4.16 2.88-4.8 3.04-13.6 3.84-19.6 1.68-44.32-2.72-61.12-10.96l-5.2-2.56-1.36-13.2c-3.28-31.52-5.04-43.44-8.64-58.4l-2.24-9.2 18.88-19.2c17.84-18.08 26.4-27.52 38.4-42.24 4.56-5.6 5.2-6.16 7.2-5.68 1.2.32 10.24 2.64 20.16 5.2zM38.08 276c6.08 3.6 15.2 6.72 22.88 7.92 2.8.48 11.36 1.04 19.04 1.36 9.12.32 14.56.88 15.6 1.52.96.56 5.84 6.4 10.96 12.88 16.32 21.04 27.2 32.32 41.68 43.12l6.16 4.64-.48 10.88c-.24 6-.16 14.4.24 18.72l.72 7.76-2.88.8c-9.76 2.72-27.52-1.68-45.6-11.36-24.24-12.88-47.92-33.28-65.2-56.16-6.16-8.08-7.04-9.6-5.92-10.32 1.12-.72 1.12-1.28-.56-6.16-2-6-3.52-15.44-3.52-22 0-3.76.56-6.8 1.2-6.8.16 0 2.72 1.44 5.68 3.2zm202.88 41.12c8.24 3.44 20.96 7.2 29.52 8.88 4.48.8 11.44 1.2 22.48 1.2h16l-.56 5.36c-.96 9.68-3.6 21.28-6.32 27.6l-2.72 6.16 3.28.64 3.2.64-8.72 4.96c-28 15.84-57.6 23.84-91.6 24.8-17.92.48-23.28-.08-33.52-3.44-8.88-2.96-13.36-6.08-14.56-10.16-1.04-3.76-1.44-30-.48-33.44.72-2.56 2.56-3.36 29.84-13.12 20.88-7.52 31.92-12.56 41.2-18.72 3.28-2.16 6.08-4 6.16-4 .16-.08 3.2 1.12 6.8 2.64z"/></svg>