<svg version="1.0" xmlns="http://www.w3.org/2000/svg" width="300" height="400" fill="none" stroke="#000" viewBox="0 0 300 400"><path d="M183.007 17.792c-1.92 3.072-5.31 8.512-7.484 12.096-2.175 3.584-6.653 9.984-9.851 14.208l-5.949 7.68-3.262-2.816c-4.478-3.968-30.896-31.36-31.791-33.024-1.024-1.984-1.727-.832-2.75 4.608-2.048 10.56-4.414 19.392-8.124 30.208L109.83 62.08l-1.983-1.152c-1.088-.64-9.34-6.464-18.295-12.928C68.763 33.088 68.444 32.832 66.59 32.32l-1.536-.448.448 8.512c.448 9.984.704 40.768.32 41.152-.128.128-4.158-.192-8.891-.704-4.734-.512-14.648-.96-22.069-1.024-15.671-.128-15.096-.576-9.978 6.912 4.99 7.36 14.456 25.024 19.062 35.776 2.11 5.056 2.11 6.08-.192 6.144-2.24 0-30.064 9.984-31.535 11.264-.704.64-.256 1.088 2.558 2.496 8.252 4.224 14.073 8.576 23.476 17.792l6.012 5.824-5.5 10.944c-3.007 5.952-7.1 13.952-9.084 17.792-2.047 3.776-3.518 7.04-3.262 7.232.192.192 1.471-.832 2.75-2.304 2.303-2.56 17.911-14.72 18.87-14.72.512 0 1.088 8.064 1.6 22.848l.383 11.072h-2.814c-3.262 0-5.245 1.6-6.269 5.056-.64 2.304.192 22.784 1.28 33.344.767 6.592 2.558 13.568 4.413 16.832 4.542 8 10.747 17.728 12.41 19.52 2.942 3.072 5.309 4.16 8.06 3.712l2.366-.384.832 4.032c2.047 9.792 2.942 12.352 8.763 24 12.857 25.92 21.62 35.968 49.126 56.32 8.763 6.464 17.207 12.48 18.806 13.312 4.286 2.304 6.78 1.984 13.369-1.408 17.91-9.408 29.808-20.672 46.823-44.416 7.548-10.624 10.874-16.32 12.41-21.44.511-1.792 2.43-6.08 4.157-9.6 4.861-9.728 7.228-16.128 13.88-37.632 1.28-4.096 3.007-8.704 3.839-10.24 2.174-3.968 5.757-14.656 9.019-27.008 1.535-6.016 3.134-11.904 3.454-13.12.384-1.6.32-2.56-.192-3.392-.64-1.024-.448-1.92 1.343-5.44 2.75-5.632 3.455-11.904 2.559-22.016-.704-7.168-.64-7.616.832-11.52 1.215-3.264 1.535-5.312 1.535-10.432 0-3.52-.192-7.168-.448-8.064-.448-1.6-.32-1.728 3.838-2.816 2.367-.64 8.252-2.368 13.113-3.904 4.797-1.536 9.723-2.816 10.874-2.816 3.263 0 4.926-.704 4.926-1.92 0-1.344-.64-1.664-17.527-7.232-6.716-2.176-12.218-4.288-12.346-4.608-.063-.384 4.158-5.952 9.531-12.48 10.875-13.312 17.143-21.568 17.143-22.528 0-.384-.703-.512-1.727-.32-11.961 2.56-17.59 3.904-23.347 5.504l-6.909 1.856v-1.472c0-.896 2.879-8 6.397-15.872 3.454-7.872 7.036-16.512 7.932-19.2 1.919-5.888 3.134-12.032 2.494-12.672-.32-.256-3.966 1.856-8.187 4.672-6.589 4.416-28.273 15.872-30 15.872-1.152 0 .192-17.024 2.494-30.72 2.495-14.976 3.455-24.32 2.431-24.32-.96 0-8.124 4.48-14.072 8.96-8.06 5.952-17.91 14.592-21.493 18.752-1.727 1.984-3.326 3.648-3.646 3.648-.256 0-1.215-2.816-2.111-6.272-.896-3.392-3.198-12.416-5.181-19.968-1.92-7.552-3.838-15.936-4.222-18.56-.704-5.376-1.727-8.32-2.814-8.32-.384.064-2.24 2.56-4.158 5.632zm5.629 1.856c.447 2.752 2.558 11.776 4.67 20.032 2.11 8.256 4.54 17.92 5.436 21.44.96 3.52 1.727 6.464 1.791 6.592.064.064 3.135-2.944 6.78-6.656 7.74-7.872 16.376-14.976 25.971-21.44l6.78-4.608-.383 5.696c-.256 3.136-1.472 11.712-2.687 19.136-1.215 7.36-2.367 16.576-2.559 20.48-.192 3.84-.511 7.808-.64 8.768-.191 1.024 0 1.792.448 1.792 1.664 0 25.779-12.48 31.856-16.512 3.71-2.432 6.78-4.416 6.908-4.288.128.064-.384 2.56-1.152 5.44-1.599 6.272-4.86 14.656-11.13 28.48-4.221 9.28-6.14 15.04-4.989 15.04.256 0 3.774-.896 7.804-1.984 8.571-2.24 23.284-5.696 23.475-5.44.384.384-5.5 8.192-13.113 17.344-11.258 13.632-13.113 16.192-12.729 17.216.192.512 6.333 2.88 14.329 5.504 7.675 2.56 14.328 4.8 14.712 4.928 1.471.576.256 1.28-2.943 1.728-1.727.192-5.5 1.152-8.443 2.048-15.096 4.608-26.61 7.488-39.915 10.112-34.03 6.656-38.763 7.104-80.597 7.808-27.57.448-46.056-.256-61.408-2.304-13.113-1.728-15.415-1.664-19.445.448-1.855 1.024-5.565 4.032-8.38 6.848l-4.99 4.992-.447-4.288c-.256-2.304-.32-6.528-.192-9.344.32-5.248-.32-6.016-1.279-1.536-.448 2.368-.832 2.752-5.245 5.056-4.862 2.496-15.8 9.984-23.028 15.808-2.175 1.792-3.902 3.008-3.774 2.624.128-.32 3.774-7.616 8.06-16.192 4.285-8.576 7.995-16.256 8.187-17.088.512-1.728-.511-1.856-1.343-.192-.512 1.088-1.28.576-6.78-4.736-7.292-6.976-12.346-10.88-19.19-14.912-2.75-1.536-4.99-3.072-4.99-3.264 0-.256 1.792-1.088 3.966-1.792 14.457-4.928 26.674-9.152 28.081-9.664l1.728-.576-1.664-3.776c-4.541-10.304-16.887-33.6-20.34-38.336-.768-1.088-1.92-2.752-2.56-3.776l-1.15-1.856 14.647.384c8.124.256 18.295.832 22.708 1.408 4.35.512 7.996.832 7.996.768 0-.064-.192-11.2-.384-24.768-.256-13.568-.383-24.704-.256-24.832.192-.192 4.542 2.88 24.435 17.216 18.423 13.312 19.254 13.824 19.638 12.608 1.343-4.48 3.838-12.096 5.437-16.512 2.111-6.08 4.606-15.488 6.077-23.616.576-3.008 1.151-5.504 1.28-5.632.191-.192 12.28 12.032 19.637 19.968 2.622 2.816 7.484 7.744 10.81 10.944 5.245 5.056 6.14 5.76 6.525 4.672.255-.64 3.07-4.672 6.268-8.832 3.199-4.224 8.7-12.352 12.218-18.112 7.292-11.776 7.548-12.16 8.251-11.712.256.128.832 2.496 1.216 5.248zm63.006 152c1.983 2.816.768 11.776-3.134 22.784-1.471 4.288-1.535 4.8-.64 6.08 1.28 1.792 1.216 3.712-.192 9.152-2.302 8.448-5.18 14.4-8.699 17.92-4.094 4.032-16.055 10.24-25.842 13.44-9.34 3.072-25.907 7.04-34.03 8.192-18.55 2.624-40.938 2.624-58.273 0-3.646-.512-7.228-.832-7.996-.64-3.582.896-42.665-11.456-43.625-13.824-.128-.256-.703-.512-1.28-.512-2.558-.064-9.722-5.824-12.217-9.792-.767-1.28-2.11-2.88-3.006-3.584-1.471-1.152-1.535-1.6-1.535-8.064v-6.848l3.39 3.008c4.094 3.584 11.066 7.232 12.026 6.272.511-.512-.512-1.536-3.39-3.456-6.525-4.416-12.666-11.584-12.666-14.72 0-.96 6.397-10.496 9.211-13.632l2.175-2.56.448 3.2c.192 1.728.576 3.968.767 4.992l.32 1.856 3.71-4.032 3.646-4.096.448 8.064c.192 4.48.576 8.576.768 9.088.575 1.536 1.343.704 1.855-1.984.447-2.56 3.39-8.768 7.484-15.744 3.71-6.464 4.285-6.592 17.335-4.8 9.914 1.408 12.09 1.472 51.62 1.472 49.446-.064 55.523-.512 87.25-6.912 10.106-2.048 12.857-2.112 14.072-.32zM52.324 222.272c4.35 4.16 6.972 11.072 9.02 23.808 1.663 10.24 4.669 22.208 5.628 22.528.512.192.768-2.944.768-10.816.064-8.832.96-20.992 1.6-20.992.063 0 5.756 1.984 12.6 4.416 6.78 2.432 14.265 4.928 16.568 5.568l4.157 1.152-4.157.832c-6.333 1.28-10.171 2.752-10.875 4.096-.511.896-.32 2.496.832 6.208.896 2.688 1.919 6.592 2.367 8.576.447 2.048 1.087 3.712 1.343 3.712.32 0 .32-3.84.128-8.512l-.384-8.576 2.175-.384c1.215-.192 3.198-.576 4.414-.832l2.238-.448-1.407 1.536c-4.413 4.864-3.262 13.888 2.303 17.536 8.124 5.376 18.486-.512 18.614-10.56l.064-2.88 3.006 3.328c1.728 1.856 3.902 5.184 4.926 7.36 2.303 4.992 2.175 4.8 2.814 3.776.96-1.536-.831-6.016-4.605-11.456-1.791-2.688-1.791-2.752-.384-2.048.832.448 4.03 2.368 7.036 4.224 6.013 3.776 8.636 4.608 10.747 3.52 1.79-1.024 1.727-1.984-.256-1.984-.896 0-3.007-1.152-4.926-2.752-4.67-3.776-10.362-8.256-12.025-9.408-1.28-.896-.832-.96 5.5-.448 3.839.256 15.097.384 25.011.192 15.352-.32 19.51-.64 27.506-1.984 5.245-.896 9.915-1.728 10.426-1.92 1.92-.64-3.646 3.584-10.234 7.744-3.71 2.368-7.356 4.672-8.06 5.184-1.28.832-1.471.704-2.367-1.216-.575-1.152-1.087-2.88-1.215-3.84-.128-.96-.512-1.984-.768-2.24-.32-.256-.383.512-.192 1.792.384 2.688 2.815 8.256 3.519 8.256.447 0 12.409-4.352 14.968-5.376.64-.32-.384 1.728-2.431 4.8-3.646 5.504-3.838 6.016-2.879 6.656.384.192 1.92-1.664 3.455-4.096 3.198-4.928 4.541-6.208 3.965-3.712-.255.832-.127 2.752.32 4.16 2.047 7.68 11.13 10.752 18.103 6.144 4.67-3.072 7.036-11.584 4.541-16.384l-1.023-1.984 2.43.512c1.344.256 3.263.832 4.222 1.344 2.111 1.088 2.303 3.264.832 8.192-1.088 3.52-1.216 6.144-.384 6.144.96 0 5.885-12.096 5.693-13.952-.192-1.536-.768-1.92-4.67-3.264-3.646-1.28-5.756-1.6-11.385-1.6-6.845-.064-6.909-.064-5.438-1.216.832-.704 2.751-2.432 4.35-3.968 2.047-1.92 4.03-3.008 6.717-3.776 4.605-1.408 14.648-5.376 20.149-8 2.239-1.088 4.222-1.984 4.414-1.984 1.15 0-1.152 26.752-3.263 37.76-1.343 7.36-6.46 24.512-9.978 33.6-5.502 14.464-13.625 28.096-22.325 37.376-6.972 7.552-29.424 24.192-38.06 28.224-7.995 3.776-17.782 4.8-27.249 2.816-6.844-1.408-11.13-3.264-16.759-7.296-25.906-18.56-35.949-29.504-45.992-50.176-3.965-8.128-9.85-23.872-10.554-28.224-.448-2.624-1.343-4.672-1.855-4.16-.128.192.384 3.008 1.215 6.336.832 3.328 1.344 6.272 1.152 6.528-.512.896-3.326.64-5.373-.384-1.024-.512-2.559-1.92-3.39-3.008-3.838-5.184-12.922-20.864-13.945-24.256-1.407-4.608-2.943-18.56-3.454-32.384-.32-8.384-.192-10.752.575-12.608 1.728-4.16 6.077-4.48 9.851-.832zm200.725 5.12c.128.448-1.15 3.84-2.942 7.488-1.791 3.712-3.006 6.016-2.814 5.184.191-.832.895-3.84 1.47-6.72.576-2.88 1.28-5.568 1.536-6.016.704-1.024 2.303-1.024 2.75.064zm-7.675 15.872c-1.536 6.848-3.007 13.952-3.263 15.808-.256 1.856-.575 3.264-.767 3.136-.128-.192.192-4.992.703-10.752.576-5.696 1.024-12.352 1.024-14.784 0-4.288 0-4.352 2.43-5.888 1.6-1.024 2.431-1.28 2.56-.704.127.384-1.088 6.336-2.687 13.184zm-178.721-8c1.215.384 1.279.64.831 4.992-.32 2.496-.703 8.832-.895 14.144l-.384 9.6-1.727-8c-.96-4.416-2.24-10.752-2.75-14.08-.577-3.328-1.408-7.296-1.92-8.768l-.895-2.688 3.198 2.176c1.727 1.152 3.774 2.368 4.542 2.624zm182.239 9.536c-2.111 8.192-5.501 18.752-6.525 20.16-.576.768-.64.768-.32-.192.192-.64.96-4.416 1.663-8.384.768-4.416 2.047-8.896 3.263-11.584 1.087-2.432 2.239-5.12 2.558-5.952 1.344-3.584 1.024-.576-.64 5.952zm-40.747 2.304c-1.919 2.048-8.763 6.976-9.659 6.976-.255 0-2.75 1.152-5.629 2.56-4.285 2.112-13.752 5.76-14.968 5.76-.191 0 2.495-1.856 6.013-4.16 3.454-2.304 6.46-4.16 6.589-4.16.448 0 5.5-3.968 6.332-4.992.576-.704 10.107-3.648 12.602-3.904.383-.064-.192.832-1.28 1.92zm-82.9 6.08c3.774 2.496 16.632 12.672 16.696 13.248.127.768-4.094-1.216-8.316-4.032-2.239-1.472-5.629-3.52-7.612-4.48-1.983-1.024-3.966-2.24-4.414-2.816-.511-.576-1.215-1.024-1.599-1.024-.384-.064-1.535-.768-2.622-1.664l-1.92-1.664 3.71.448c2.303.256 4.67 1.024 6.077 1.984zm-13.049.192c5.693 1.728 6.78 3.008 6.78 7.552 0 4.864-1.854 8.192-5.756 10.304-7.036 3.712-15.352-1.024-15.352-8.896 0-4.032.896-6.272 3.39-8.384 2.495-2.112 5.501-2.304 10.938-.576zm100.043 1.088c1.983.576 3.326 3.392 3.326 7.232 0 3.904-.831 6.208-3.07 8.64-3.582 3.776-9.723 4.736-13.625 2.112-7.868-5.312-6.204-14.912 3.135-17.728 2.11-.64 8.187-.768 10.234-.256zM75.864 313.408c7.164 15.872 18.934 30.976 32.878 42.176 5.117 4.096 18.55 13.632 20.917 14.912 5.437 2.816 17.015 4.864 23.86 4.288 12.92-1.152 17.526-3.648 43.112-22.976 5.566-4.224 5.566-4.16.256 2.944-6.012 7.936-14.648 15.808-20.66 18.816-7.42 3.776-18.87 5.632-31.92 5.12-9.019-.32-12.665-.96-19.765-3.648-9.66-3.648-24.307-17.152-33.646-31.104-4.99-7.488-14.457-25.856-17.015-32.896-2.175-6.272-1.535-5.44 1.983 2.368zm122.43-127.36c-5.884.64-19.253.96-51.108 1.088l-43.177.192-1.727 1.984c-3.966 4.416-6.141 15.104-5.437 26.56.511 8.64 1.535 16.32 2.43 18.048 2.43 4.8 6.973 6.784 19.382 8.64 19.701 2.944 23.987 3.392 32.303 3.456 7.42 0 26.162-1.024 32.303-1.792 4.03-.512 15.607-3.072 20.789-4.672 14.2-4.288 18.87-8.256 20.405-17.152.32-2.112.575-9.792.447-17.024-.191-14.912-.767-17.152-4.925-19.264-2.686-1.408-9.915-1.408-21.684-.064zm21.045 1.024c2.815 1.408 1.791 2.048-3.774 2.176-3.006.128-11.833.64-19.573 1.152-15.928 1.088-57.186 1.28-67.164.384-10.555-1.024-24.563-1.472-24.563-.832 0 .384 4.221.768 9.467.96 5.18.192 14.136.64 19.957 1.088 11.77.832 51.237.512 64.606-.576 4.413-.32 11.641-.768 16.119-.896l8.188-.32.64 2.368c.83 3.136.83 27.328-.065 31.488-1.087 5.056-5.053 8.704-12.09 11.264-7.74 2.752-18.23 5.12-27.824 6.272-9.595 1.088-34.862 1.28-46.248.32-4.158-.32-11.066-.96-15.48-1.28-11.386-.96-15.032-1.6-17.59-3.2-4.094-2.496-5.245-6.848-5.885-21.76-.384-9.984.512-16.832 3.006-22.656 1.983-4.672 3.454-5.248 12.154-4.864 9.147.384 49.51.448 64.925.064 6.333-.192 14.52-.64 18.23-1.024 9.468-1.088 21.045-1.152 22.964-.128zm-1.919 5.952c-.96 1.152-.127 3.008 1.536 3.328 1.151.256 2.622-2.112 2.11-3.456-.447-1.216-2.558-1.152-3.646.128zm2.623.896c0 .704-.448 1.28-.96 1.28-.959 0-1.343-1.344-.511-2.112.767-.832 1.471-.448 1.471.832zm-115.778 1.856c-1.344 2.56 1.215 4.672 3.838 3.264 1.535-.832 1.535-3.264 0-3.712-.768-.192-.768-.128-.192.512 1.087 1.152.256 2.56-1.472 2.56-1.663 0-2.11-1.728-.767-3.072.576-.576.576-.768 0-.768-.384 0-1.024.576-1.407 1.216zm74.136 5.952c-1.151 1.536-2.175 2.816-2.175 2.944-.064.064-1.215-.32-2.622-.896-5.373-2.24-12.921 0-17.783 5.312-3.966 4.352-15.735 20.8-15.735 22.016 0 .448 5.309 2.176 9.786 3.136 1.663.384 6.205.704 10.043.704 6.397.128 7.164 0 9.787-1.6 4.99-2.88 8.123-7.936 8.123-12.928 0-2.496-.32-3.264-2.11-5.056-2.495-2.496-4.606-3.2-7.932-2.56-3.007.512-6.589 4.032-6.589 6.336 0 3.776 3.263 7.168 6.397 6.656 2.303-.32 2.303-1.728.064-2.496-2.75-.96-3.646-2.752-2.367-4.8 1.407-2.048 3.518-2.496 6.397-1.28 2.047.832 2.303 1.216 2.303 3.264 0 2.816-1.152 5.12-3.838 7.68-1.6 1.536-2.495 1.92-4.798 1.856-5.629-.128-9.595-4.288-9.53-10.176.063-5.696 4.157-11.328 8.954-12.224 3.135-.576 8.188.064 10.043 1.344 1.535.96 1.663.896 5.181-2.944 3.902-4.16 4.542-6.464 1.92-6.848-.96-.128-1.984.576-3.519 2.56zm3.838.064c-.384.768-1.919 2.624-3.326 4.096-2.559 2.688-2.559 2.688-4.542 1.664-2.622-1.344-9.659-1.408-12.217-.064-2.623 1.408-5.181 4.224-6.333 7.04-1.471 3.456-1.343 9.28.256 11.904 1.471 2.432 5.629 4.544 8.827 4.608 4.926 0 9.467-4.224 10.17-9.536.32-2.112.065-2.816-1.278-4.16-4.478-4.48-13.177.832-8.956 5.504.576.64 1.536 1.152 2.24 1.152.639 0 1.15.256 1.15.64 0 .896-1.023.768-3.134-.32-2.047-1.024-2.622-2.112-2.622-5.056 0-3.072 2.366-4.992 6.652-5.376 3.07-.256 3.582-.064 5.437 1.536 2.943 2.688 3.262 5.696 1.088 10.112-2.175 4.416-6.013 7.616-9.34 7.808-1.343.064-3.518.32-4.925.576-5.309.832-20.405-2.176-19.701-3.968.831-2.24 13.497-19.008 15.991-21.184 1.727-1.472 4.35-2.944 6.525-3.648 3.518-1.152 3.902-1.152 7.868-.064l4.157 1.088 1.28-1.792a45.587 45.587 0 0 1 2.686-3.264c1.791-1.792 3.07-1.344 2.047.704zm-33.838 22.272c-2.175 3.52-3.774 6.592-3.582 6.784.64.704 5.885 1.408 10.299 1.408l4.477.064-2.686-2.304c-3.007-2.496-4.926-7.296-4.35-10.688.192-.96.192-1.728.064-1.728s-2.047 2.88-4.222 6.464zm6.46 5.504 1.536 1.664-4.99-.32c-2.686-.192-5.117-.448-5.309-.64-.128-.192.896-2.24 2.367-4.544l2.687-4.224 1.087 3.2c.64 1.728 1.791 3.904 2.623 4.864zm64.862-19.648c-1.087 1.216-1.087 1.408-.128 2.368.832.896 1.216.896 2.047.192 1.088-.896 1.088-3.264-.064-3.648-.384-.128-1.215.384-1.855 1.088zm1.727 1.408c-.96.96-1.535.384-1.023-1.024.32-.768.64-.896 1.087-.448.512.512.512.896-.064 1.472zm-120.512 1.408c-1.023 2.304-.256 3.584 2.047 3.584 2.495 0 4.03-2.624 2.431-4.224-.704-.704-1.151-.768-1.407-.32-.256.384-.128.704.256.704 1.215 0 .383 2.88-.896 3.072-1.983.384-2.623-.896-1.407-2.688.575-.96.767-1.664.384-1.664-.384 0-.96.704-1.408 1.536zm115.395 12.672c-1.215 1.216-.896 2.944.576 3.776 1.151.576 1.599.448 2.75-.64 1.024-1.088 1.152-1.6.64-2.496-.896-1.344-2.879-1.728-3.966-.64zm2.942 1.728c-.32 1.536-2.43 1.728-2.43.192 0-.64.192-1.344.384-1.6.703-.704 2.238.32 2.046 1.408zm-114.946 2.24c-1.472 1.728-.576 3.264 1.855 3.264 1.855 0 2.302-.256 2.43-1.536.256-1.6-.831-3.2-1.599-2.304-.32.256-.128.64.32.768 1.087.384.96 2.048-.192 2.496-1.471.576-3.07-.96-2.175-2.112.448-.448.64-1.024.448-1.152-.192-.192-.704.064-1.087.576zm-60.832-3.008c0 .256.96.96 2.11 1.472 1.728.768 2.687 2.304 5.95 8.96 5.18 10.496 5.309 10.88 3.134 10.88-1.983 0-3.902.896-5.885 2.752-3.07 2.752-1.215 9.024 4.99 16.768 3.901 4.928 9.53 10.432 9.53 9.344 0-.448-1.599-4.224-3.518-8.32-1.919-4.16-3.518-7.808-3.518-8.192 0-1.152 3.198-4.672 4.286-4.672.512 0 .831-.192.703-.512-.767-1.472-4.861-10.432-7.74-16.768-1.79-4.032-4.157-8.256-5.245-9.408-1.855-1.92-4.797-3.392-4.797-2.304zm14.712 24.896 1.28 2.944-1.92 1.984c-2.43 2.496-2.494 4.608-.255 9.344.959 1.984 2.11 4.416 2.622 5.504.64 1.408-.192.832-3.198-2.368-6.717-7.04-10.043-14.912-7.356-17.536.96-.96 5.245-2.752 6.78-2.816.448 0 1.407 1.344 2.047 2.944zm95.373 6.144c-2.047 3.392-7.484 9.536-9.786 11.136-1.344.96-2.303 1.856-2.175 2.048.64.576 4.221-2.24 7.676-6.144 4.221-4.736 5.693-6.848 5.373-7.808-.128-.384-.576 0-1.088.768zm20.79 10.176c-1.856 2.24-2.303 3.2-2.24 5.312.064 1.472.192 2.048.384 1.344.128-.704.384-1.92.576-2.688.128-.832 1.151-2.496 2.239-3.712 1.151-1.28 1.855-2.432 1.727-2.624-.192-.192-1.407.896-2.687 2.368zm-80.982 5.568c0 1.216 2.24 3.456 4.67 4.8 2.495 1.344 3.454 1.408 14.2 1.344 11.322-.064 16.312-.512 16.312-1.408 0-.256-2.111-.32-4.606-.064-2.559.256-8.571.512-13.305.512-9.53.064-12.601-.768-15.16-4.032-1.343-1.664-2.11-2.112-2.11-1.152zm125.502 1.792c-.704 1.408-1.727 2.944-2.303 3.392-2.367 1.984-15.864 1.472-25.01-.896-3.327-.896-4.926-.896-4.03 0 1.087 1.088 13.112 2.944 19.061 3.008 9.403.064 10.555-.256 12.538-3.712.895-1.536 1.535-3.136 1.343-3.584-.128-.448-.832.32-1.6 1.792zm-116.61 13.952c-.576.576-18.487 2.304-23.988 2.304-3.838 0-6.076.256-6.396.768-.64 1.024 14.52.256 26.482-1.344 9.467-1.28 12.025-1.984 7.036-1.984-1.535 0-3.006.128-3.134.256zm103.689 3.584c.511.32 2.11.64 3.518.64 1.407 0 5.757.448 9.595.96 8.315 1.088 11.194 1.216 11.194.32 0-.384-1.344-.64-3.007-.64-1.727 0-5.949-.448-9.467-.96-7.548-1.088-13.305-1.28-11.833-.32zm-102.346 9.344c-12.282 2.624-26.226 6.208-26.226 6.784 0 .384.64.512 1.471.256 2.43-.704 22.324-5.376 26.162-6.144 2.047-.384 3.838-1.024 4.03-1.344.448-.704-.128-.64-5.437.448zm97.612 4.032c.448.384 9.85 2.752 22.644 5.632 1.087.256 1.407.128.96-.32-.576-.64-21.43-5.888-23.412-5.888-.512 0-.576.192-.192.576zm-95.245 9.728c-.96.576-6.013 2.368-19.126 6.848-1.727.576-3.07 1.28-3.07 1.6 0 .64 1.15.32 8.635-2.432 3.198-1.152 7.356-2.56 9.275-3.072 3.518-1.024 6.333-2.624 5.757-3.2-.192-.192-.832-.064-1.471.256zm94.99 3.136c.127.384 3.261 2.112 7.035 3.776 7.868 3.648 9.467 4.224 9.467 3.456 0-.32-2.11-1.472-4.605-2.56-2.559-1.088-6.333-2.752-8.38-3.648-2.11-.96-3.646-1.408-3.518-1.024zm-34.159 1.344c-1.023.704-1.79 1.6-1.79 1.984 0 .32.767 0 1.662-.704.96-.768 2.111-1.344 2.559-1.344.512 0 .896-.32.896-.64 0-1.024-1.472-.704-3.327.704zm-18.422-.128c0 .384.96.704 2.111.704 1.087 0 2.878.448 3.902.96 2.303 1.216 2.942.768.895-.576-1.982-1.28-6.908-2.112-6.908-1.088zm42.921 14.4c-.895.96-2.814 1.856-4.797 2.304-4.478.96-26.482 1.856-48.039 1.984-17.846.064-19.51-.128-24.754-2.304-.64-.256-1.152-.192-1.152.192 0 .32 1.216 1.152 2.75 1.792 2.24.96 4.926 1.216 16.632 1.408 16.503.256 49.446-.832 54.051-1.856 3.39-.704 7.164-2.816 7.676-4.288.384-1.28-.832-.896-2.367.768zM106.44 259.52c-1.343 2.048-.96 3.712 1.152 4.416 3.198 1.152 5.117-2.624 2.558-4.928-1.599-1.472-2.494-1.344-3.71.512zm3.902 1.92c0 2.176-1.279 2.752-3.134 1.408-1.791-1.344-.832-3.776 1.407-3.52 1.471.128 1.727.512 1.727 2.112zm93.135-.384c-.768.768-1.343 1.664-1.343 2.048 0 1.536 1.407 3.136 2.814 3.136 3.07 0 3.902-3.776 1.215-5.568-1.215-.832-1.535-.768-2.686.384zm3.454 2.304c0 1.472-.32 1.984-1.343 2.112-1.92.256-3.07-1.344-2.175-3.072 1.151-2.112 3.518-1.472 3.518.96z"/></svg>